<?xml version="1.0" standalone="no"?>
<!DOCTYPE svg PUBLIC "-//W3C//DTD SVG 20010904//EN"
 "http://www.w3.org/TR/2001/REC-SVG-20010904/DTD/svg10.dtd">
<svg version="1.0" xmlns="http://www.w3.org/2000/svg"
 width="378.000000pt" height="378.000000pt" viewBox="0 0 378.000000 378.000000"
 preserveAspectRatio="xMidYMid meet">
<metadata>
Created by potrace 1.11, written by Peter Selinger 2001-2013
</metadata>
<g transform="translate(0.000000,378.000000) scale(0.100000,-0.100000)"
fill="#000000" stroke="none">
<path d="M573 2840 c-18 -5 -19 -18 -18 -188 0 -101 -3 -186 -8 -189 -4 -2 -4
-9 0 -16 9 -15 10 -118 1 -124 -5 -2 -4 -12 0 -21 5 -9 7 -28 5 -42 -2 -14 -3
-29 -3 -35 4 -137 3 -238 -3 -242 -4 -2 -4 -9 0 -15 9 -16 10 -219 0 -225 -4
-2 -4 -10 0 -16 4 -6 6 -40 5 -75 -4 -127 -44 -156 -232 -167 -63 -4 -118 -9
-121 -11 -6 -3 -4 -82 6 -174 3 -30 7 -80 9 -110 3 -30 5 -58 5 -62 1 -3 38
-4 82 -1 66 4 80 2 73 -9 -6 -10 -5 -11 7 -1 8 7 46 14 84 17 39 2 70 5 70 6
0 1 35 7 78 13 13 2 29 7 36 12 10 6 12 4 6 -6 -5 -8 0 -7 12 3 11 10 25 18
32 18 25 0 109 50 158 94 34 31 62 69 86 118 33 67 39 89 53 188 2 19 5 195 5
390 0 259 3 358 12 369 7 9 8 12 1 8 -8 -4 -11 64 -12 240 -1 135 -4 248 -6
251 -6 6 -401 8 -423 2z"/>
<path d="M1925 2842 c-39 -3 -41 -4 -76 -80 -72 -151 -130 -277 -131 -282 -1
-3 -16 -34 -34 -70 -17 -36 -32 -67 -32 -70 0 -3 -19 -42 -41 -86 -23 -45 -41
-87 -41 -93 0 -7 -5 -9 -12 -5 -6 4 -8 3 -5 -3 4 -6 -2 -28 -12 -49 -10 -22
-33 -72 -51 -111 -18 -41 -37 -70 -43 -66 -6 3 -7 1 -3 -6 5 -7 -8 -44 -27
-84 -42 -86 -100 -210 -102 -217 -3 -10 -52 -116 -174 -372 -22 -48 -41 -90
-41 -93 0 -3 101 -5 225 -5 197 0 225 2 225 16 0 9 5 12 12 8 6 -4 8 -3 5 4
-4 5 2 31 13 56 11 26 19 48 19 51 1 3 8 19 16 35 8 16 16 33 16 37 2 21 21
43 31 37 7 -5 8 -2 3 5 -4 7 0 32 9 56 l17 43 375 0 376 0 14 -36 c8 -21 19
-45 25 -55 5 -10 7 -22 4 -27 -4 -6 -2 -10 4 -10 9 0 21 -26 20 -44 0 -5 5
-12 11 -16 7 -4 13 -19 13 -33 1 -14 5 -23 8 -21 3 2 12 -13 18 -34 25 -76 14
-73 255 -70 l216 3 -29 60 c-63 132 -134 280 -160 338 -16 34 -47 100 -69 147
-21 47 -54 117 -72 155 -18 39 -52 111 -75 160 -23 50 -53 113 -65 140 -13 28
-49 106 -81 173 -33 68 -56 129 -52 135 3 5 2 8 -3 4 -10 -6 -130 248 -128
270 1 7 -2 11 -6 8 -4 -3 -17 18 -29 45 -12 28 -27 50 -34 51 -45 3 -269 3
-302 1z m149 -514 c-4 -6 -3 -8 4 -4 9 5 36 -52 37 -79 0 -5 6 -16 13 -24 7
-7 10 -21 7 -29 -3 -9 -3 -13 1 -9 10 10 46 -73 39 -90 -2 -8 -1 -12 4 -9 9 6
38 -52 33 -66 -1 -5 3 -8 8 -8 6 0 10 -8 10 -18 0 -10 4 -22 9 -28 5 -5 11
-18 13 -29 1 -11 7 -23 11 -26 5 -4 10 -18 10 -32 1 -14 5 -23 8 -21 4 2 9 -2
12 -10 4 -11 -31 -13 -194 -14 -152 -1 -198 2 -193 11 5 8 3 8 -7 0 -7 -7 -24
-13 -37 -13 -20 0 -22 4 -16 23 4 12 9 24 13 27 3 3 7 14 9 25 2 11 10 30 18
42 8 12 14 29 14 38 0 10 5 13 12 9 6 -4 8 -3 5 3 -9 15 24 94 36 86 6 -3 7
-1 4 5 -10 15 3 43 16 35 6 -3 7 -1 3 6 -4 7 5 41 20 76 23 57 29 63 43 52 14
-10 14 -10 3 5 -14 17 -7 62 8 53 4 -3 8 1 7 8 0 6 1 21 2 32 1 19 2 19 12 2
5 -9 7 -22 3 -29z"/>
<path d="M3122 1531 c-1 -31 -2 -67 -2 -81 0 -14 1 -60 2 -102 2 -43 -1 -78
-5 -78 -5 0 -5 -5 -1 -12 9 -14 10 -71 1 -85 -4 -6 -4 -13 0 -17 3 -3 107 -6
229 -6 l223 0 -2 218 -2 217 -221 1 -222 1 0 -56z"/>
<path d="M1779 1488 c-5 -18 -6 -38 -1 -34 7 8 12 36 6 36 -2 0 -4 -1 -5 -2z"/>
<path d="M1893 1469 c-2 -23 3 -25 10 -4 4 8 3 16 -1 19 -4 3 -9 -4 -9 -15z"/>
<path d="M2216 1478 c3 -5 10 -6 15 -3 13 9 11 12 -6 12 -8 0 -12 -4 -9 -9z"/>
<path d="M2256 1482 c-2 -4 -1 -14 4 -22 7 -11 9 -9 7 8 -1 24 -3 26 -11 14z"/>
<path d="M2334 1482 c4 -3 14 -7 22 -8 9 -1 13 0 10 4 -4 3 -14 7 -22 8 -9 1
-13 0 -10 -4z"/>
<path d="M2430 1459 c0 -5 5 -7 10 -4 6 3 10 8 10 11 0 2 -4 4 -10 4 -5 0 -10
-5 -10 -11z"/>
<path d="M1950 1420 c0 -5 5 -10 11 -10 5 0 7 5 4 10 -3 6 -8 10 -11 10 -2 0
-4 -4 -4 -10z"/>
<path d="M2035 1420 c-3 -5 -1 -10 4 -10 6 0 11 5 11 10 0 6 -2 10 -4 10 -3 0
-8 -4 -11 -10z"/>
<path d="M2110 1420 c0 -5 5 -10 11 -10 5 0 7 5 4 10 -3 6 -8 10 -11 10 -2 0
-4 -4 -4 -10z"/>
<path d="M1986 1378 c3 -5 10 -6 15 -3 13 9 11 12 -6 12 -8 0 -12 -4 -9 -9z"/>
<path d="M2765 1100 c-3 -6 1 -7 9 -4 18 7 21 14 7 14 -6 0 -13 -4 -16 -10z"/>
</g>
</svg>
