<?xml version="1.0" encoding="UTF-8"?>
<svg width="512px" height="512px" viewBox="0 0 512 512" version="1.1" xmlns="http://www.w3.org/2000/svg" xmlns:xlink="http://www.w3.org/1999/xlink">
    <!-- Generator: Sketch 51.1 (57501) - http://www.bohemiancoding.com/sketch -->
    <title>cookie</title>
    <desc>Created with Sketch.</desc>
    <defs></defs>
    <g id="Page-1" stroke="none" stroke-width="1" fill="none" fill-rule="evenodd">
        <g id="cookie" transform="translate(-1.000000, 0.000000)" fill-rule="nonzero">
            <path d="M492.864,287.228 C489.138,287.775 485.33,288.065 481.451,288.065 C445.746,288.065 415.529,264.708 405.165,232.448 C403.393,226.934 398.889,222.688 393.199,221.604 C333.904,210.315 289.066,158.259 289.066,95.678 C289.066,69.394 297,44.98 310.572,24.646 C313.799,19.811 311.106,13.371 305.404,12.242 C289.748,9.142 273.568,7.502 257.001,7.502 C119.759,7.502 8.503,118.758 8.503,256 C8.503,393.241 119.759,504.498 257.001,504.498 C380.69,504.498 482.966,414.464 502.203,296.18 C503.077,290.812 498.244,286.438 492.864,287.228 Z" id="Shape" fill-opacity="0.79834692" fill="#628E6D"></path>
            <g id="Group" transform="translate(112.000000, 143.000000)" fill="#628E6D" fill-opacity="0.295997509">
                <circle id="Oval" cx="32.779" cy="32.84" r="32.06"></circle>
                <circle id="Oval" cx="48.808" cy="193.159" r="24.05"></circle>
            </g>
            <g id="Group" transform="translate(357.000000, 44.000000)" fill="#628E6D" fill-opacity="0.79834692">
                <path d="M3.227,28.475 L0.927,42.274 C-0.963,53.615 5.439,64.708 16.204,68.745 L36.565,76.38 C50.014,81.423 64.856,73.63 68.339,59.695 L75.596,30.665 C80.119,12.572 63.219,-3.561 45.355,1.798 L20.036,9.394 C11.255,12.03 4.735,19.43 3.227,28.475 Z" id="Shape"></path>
                <path d="M84.371,115.808 L74.69,120.649 C67.097,124.445 63.78,133.502 67.124,141.304 L74.913,159.477 C79.629,170.48 94.302,172.621 101.965,163.425 L114.495,148.389 C120.37,141.339 119.14,130.806 111.798,125.3 L101.161,117.322 C96.302,113.678 89.802,113.092 84.371,115.808 Z" id="Shape"></path>
                <circle id="Oval" cx="132.466" cy="67.71" r="16.03"></circle>
            </g>
            <g id="Group" transform="translate(8.000000, 52.000000)" fill="#628E6D">
                <path d="M279.062,422.438 C141.82,422.438 30.564,311.182 30.564,173.94 C30.564,112.972 52.555,57.165 88.992,13.929 C34.9,59.513 0.504,127.726 0.504,204 C0.504,341.241 111.76,452.498 249.002,452.498 C325.324,452.498 393.461,418.188 438.999,364.143 C395.81,400.517 340.052,422.438 279.062,422.438 Z" id="Shape"></path>
                <path d="M389.131,49.776 C375.685,44.734 367.688,30.879 370.049,16.713 L372.79,0.269 L369.038,1.395 C360.255,4.03 353.735,11.431 352.227,20.476 L349.927,34.275 C348.037,45.616 354.439,56.709 365.204,60.746 L385.565,68.381 C396.363,72.43 407.957,68.119 413.951,59.084 L389.131,49.776 Z" id="Shape"></path>
                <path d="M441.017,141.147 L432.196,120.564 C430.539,116.698 430.401,112.582 431.405,108.79 L423.69,112.647 C416.098,116.443 412.78,125.5 416.124,133.302 L423.913,151.475 C428.629,162.478 443.302,164.62 450.965,155.423 L454.079,151.686 C448.569,150.563 443.531,147.015 441.017,141.147 Z" id="Shape"></path>
            </g>
            <g id="Group" transform="translate(112.000000, 146.000000)" fill="#628E6D">
                <path d="M49.811,44.87 C32.102,44.87 17.747,30.514 17.747,12.806 C17.747,8.371 18.649,4.147 20.277,0.306 C8.779,5.179 0.713,16.567 0.713,29.84 C0.713,47.548 15.069,61.904 32.777,61.904 C46.051,61.904 57.439,53.837 62.311,42.34 C58.469,43.968 54.245,44.87 49.811,44.87 Z" id="Shape"></path>
                <path d="M61.334,201.685 C48.052,201.685 37.286,190.918 37.286,177.637 C37.286,174.245 38.005,171.027 39.272,168.1 C30.74,171.794 24.761,180.273 24.761,190.162 C24.761,203.444 35.528,214.21 48.809,214.21 C58.699,214.21 67.177,208.231 70.871,199.699 C67.944,200.966 64.726,201.685 61.334,201.685 Z" id="Shape"></path>
            </g>
            <circle id="Oval" fill-opacity="0.295997509" fill="#628E6D" cx="313.117" cy="360.208" r="32.06"></circle>
            <path d="M330.148,375.239 C312.439,375.239 298.084,360.883 298.084,343.175 C298.084,338.74 298.986,334.516 300.614,330.675 C289.116,335.548 281.05,346.936 281.05,360.209 C281.05,377.917 295.406,392.273 313.114,392.273 C326.388,392.273 337.776,384.206 342.648,372.709 C338.807,374.337 334.583,375.239 330.148,375.239 Z" id="Shape" fill="#628E6D"></path>
            <circle id="Oval" fill-opacity="0.295997509" fill="#628E6D" cx="248.648" cy="215.92" r="16.03"></circle>
            <path d="M144.777,136.275 C122.961,136.275 105.213,154.024 105.213,175.839 C105.213,197.654 122.962,215.403 144.777,215.403 C166.593,215.403 184.342,197.654 184.342,175.839 C184.342,154.024 166.592,136.275 144.777,136.275 Z M144.777,200.404 C131.232,200.404 120.213,189.384 120.213,175.84 C120.213,162.296 131.233,151.276 144.777,151.276 C158.321,151.276 169.342,162.296 169.342,175.84 C169.342,189.384 158.321,200.404 144.777,200.404 Z" id="Shape" fill="#071E00"></path>
            <path d="M273.549,360.21 C273.549,382.026 291.298,399.774 313.113,399.774 C334.928,399.774 352.677,382.025 352.677,360.21 C352.677,338.395 334.928,320.646 313.113,320.646 C291.298,320.646 273.549,338.394 273.549,360.21 Z M313.114,335.645 C326.659,335.645 337.678,346.665 337.678,360.209 C337.678,373.753 326.658,384.773 313.114,384.773 C299.57,384.773 288.55,373.753 288.55,360.209 C288.55,346.665 299.569,335.645 313.114,335.645 Z" id="Shape" fill="#071E00"></path>
            <path d="M160.808,304.613 C143.412,304.613 129.26,318.766 129.26,336.162 C129.26,353.558 143.412,367.71 160.808,367.71 C178.204,367.71 192.357,353.558 192.357,336.162 C192.357,318.766 178.204,304.613 160.808,304.613 Z M160.808,352.71 C151.683,352.71 144.26,345.287 144.26,336.162 C144.26,327.037 151.683,319.613 160.808,319.613 C169.933,319.613 177.357,327.037 177.357,336.162 C177.357,345.287 169.933,352.71 160.808,352.71 Z" id="Shape" fill="#071E00"></path>
            <path d="M225.454,215.92 C225.454,228.896 236.011,239.452 248.986,239.452 C261.961,239.452 272.518,228.895 272.518,215.92 C272.518,202.945 261.961,192.388 248.986,192.388 C236.011,192.388 225.454,202.945 225.454,215.92 Z M248.986,207.388 C253.691,207.388 257.518,211.216 257.518,215.92 C257.518,220.624 253.69,224.452 248.986,224.452 C244.282,224.452 240.454,220.624 240.454,215.92 C240.454,211.216 244.281,207.388 248.986,207.388 Z" id="Shape" fill="#071E00"></path>
            <path d="M401.297,335.647 C402.424,335.647 403.568,335.392 404.645,334.854 C408.35,333.001 409.852,328.497 407.999,324.791 L399.983,308.758 C398.131,305.053 393.626,303.55 389.921,305.404 C386.216,307.256 384.714,311.761 386.567,315.466 L394.583,331.499 C395.898,334.128 398.546,335.647 401.297,335.647 Z" id="Shape" fill="#071E00"></path>
            <path d="M313.12,287.55 C314.247,287.55 315.391,287.295 316.468,286.757 L332.5,278.741 C336.205,276.889 337.707,272.384 335.854,268.679 C334.001,264.974 329.498,263.471 325.792,265.325 L309.76,273.341 C306.055,275.193 304.553,279.698 306.406,283.403 C307.72,286.031 310.368,287.55 313.12,287.55 Z" id="Shape" fill="#071E00"></path>
            <path d="M89.972,267.37 C91.286,269.998 93.934,271.517 96.686,271.517 C97.813,271.517 98.957,271.262 100.034,270.724 C103.739,268.872 105.241,264.367 103.388,260.662 L95.372,244.63 C93.52,240.925 89.015,239.422 85.31,241.276 C81.605,243.128 80.103,247.633 81.956,251.338 L89.972,267.37 Z" id="Shape" fill="#071E00"></path>
            <path d="M213.568,393.581 L197.536,401.597 C193.831,403.449 192.329,407.954 194.182,411.659 C195.496,414.287 198.144,415.806 200.896,415.806 C202.023,415.806 203.167,415.551 204.244,415.013 L220.276,406.997 C223.981,405.145 225.483,400.64 223.63,396.935 C221.778,393.23 217.273,391.728 213.568,393.581 Z" id="Shape" fill="#071E00"></path>
            <path d="M222.225,90.376 L214.209,82.359 C211.281,79.43 206.532,79.43 203.603,82.359 C200.674,85.288 200.674,90.036 203.603,92.965 L211.62,100.982 C213.084,102.447 215.004,103.179 216.923,103.179 C218.842,103.179 220.762,102.447 222.226,100.982 C225.154,98.054 225.154,93.306 222.225,90.376 Z" id="Shape" fill="#071E00"></path>
            <path d="M187.57,266.729 C184.641,269.658 184.641,274.407 187.57,277.335 L195.586,285.351 C197.05,286.815 198.97,287.548 200.889,287.548 C202.808,287.548 204.728,286.816 206.192,285.351 C209.121,282.422 209.121,277.673 206.192,274.745 L198.176,266.729 C195.248,263.8 190.499,263.8 187.57,266.729 Z" id="Shape" fill="#071E00"></path>
            <path d="M281.566,440.37 L281.566,448.386 C281.566,452.528 284.924,455.886 289.066,455.886 C293.208,455.886 296.566,452.528 296.566,448.386 L296.566,440.37 C296.566,436.228 293.208,432.87 289.066,432.87 C284.924,432.87 281.566,436.228 281.566,440.37 Z" id="Shape" fill="#071E00"></path>
            <path d="M246.273,149.079 L254.289,141.063 C257.218,138.134 257.218,133.385 254.289,130.457 C251.36,127.528 246.611,127.528 243.683,130.457 L235.667,138.473 C232.738,141.402 232.738,146.151 235.667,149.079 C237.131,150.543 239.051,151.276 240.97,151.276 C242.889,151.276 244.809,150.543 246.273,149.079 Z" id="Shape" fill="#071E00"></path>
            <path d="M370.571,119.766 L390.932,127.402 C394.508,128.743 398.26,129.408 402.004,129.408 C407.063,129.408 412.107,128.194 416.676,125.794 C424.627,121.619 430.437,114.227 432.615,105.514 L439.872,76.484 C442.659,65.337 439.361,53.946 431.05,46.012 C422.738,38.077 411.206,35.312 400.2,38.614 L374.882,46.21 C363.447,49.64 354.79,59.465 352.828,71.241 L350.528,85.04 C348.056,99.88 356.485,114.484 370.571,119.766 Z M365.325,87.507 L367.625,73.708 C368.654,67.531 373.195,62.377 379.193,60.578 L404.511,52.982 C406.115,52.501 407.74,52.266 409.344,52.266 C413.514,52.266 417.544,53.857 420.693,56.863 C425.052,61.024 426.782,66.999 425.321,72.846 L418.064,101.876 C416.904,106.514 413.935,110.292 409.703,112.514 C405.471,114.736 400.676,115.036 396.199,113.358 L375.838,105.722 C368.449,102.951 364.028,95.291 365.325,87.507 Z" id="Shape" fill="#071E00"></path>
            <path d="M428.336,157.94 C417.207,163.504 412.329,176.821 417.23,188.258 L425.019,206.431 C428.27,214.015 435.085,219.255 443.25,220.447 C444.41,220.616 445.567,220.699 446.714,220.699 C453.64,220.699 460.193,217.664 464.726,212.226 L477.256,197.19 C481.426,192.185 483.307,185.865 482.551,179.395 C481.795,172.925 478.509,167.208 473.297,163.3 L462.66,155.322 C455.484,149.939 446.041,149.087 438.016,153.1 L428.336,157.94 Z M444.726,166.516 C445.943,165.907 447.25,165.607 448.55,165.607 C450.356,165.607 452.147,166.187 453.66,167.321 L464.297,175.299 C466.187,176.716 467.379,178.789 467.652,181.135 C467.925,183.481 467.244,185.773 465.732,187.587 L453.202,202.623 C451.258,204.956 448.419,206.042 445.415,205.603 C442.41,205.165 440.001,203.312 438.805,200.521 L431.016,182.348 C429.239,178.201 431.008,173.372 435.043,171.355 L444.726,166.516 C444.725,166.516 444.725,166.516 444.726,166.516 Z" id="Shape" fill="#071E00"></path>
            <path d="M489.468,135.243 C502.444,135.243 513,124.686 513,111.711 C513,98.736 502.443,88.18 489.468,88.18 C476.493,88.18 465.936,98.737 465.936,111.712 C465.936,124.687 476.492,135.243 489.468,135.243 Z M489.468,103.18 C494.173,103.18 498,107.008 498,111.712 C498,116.416 494.172,120.244 489.468,120.244 C484.764,120.244 480.936,116.416 480.936,111.712 C480.936,107.007 484.763,103.18 489.468,103.18 Z" id="Shape" fill="#071E00"></path>
            <path d="M491.775,279.807 C488.351,280.309 484.878,280.564 481.452,280.564 C449.78,280.564 421.994,260.306 412.306,230.152 C409.657,221.909 402.873,215.81 394.602,214.235 C337.796,203.42 296.566,153.559 296.566,95.677 C296.566,71.775 303.566,48.651 316.811,28.807 C319.716,24.454 320.261,18.99 318.269,14.19 C316.273,9.381 312.008,5.902 306.861,4.883 C281.345,-0.17 255.164,-1.307 229.05,1.506 C176.79,7.133 128.081,28.688 88.187,63.844 C85.079,66.582 84.78,71.322 87.519,74.429 C90.257,77.536 94.997,77.836 98.104,75.097 C135.66,42.002 181.495,21.712 230.655,16.421 C255.263,13.771 279.922,14.841 303.947,19.599 C304.122,19.634 304.315,19.702 304.415,19.942 C304.509,20.169 304.432,20.336 304.334,20.482 C289.439,42.8 281.566,68.803 281.566,95.678 C281.566,160.753 327.925,216.811 391.796,228.971 C394.67,229.518 397.057,231.729 398.025,234.741 C409.713,271.121 443.24,295.564 481.452,295.564 C485.605,295.564 489.811,295.255 493.954,294.647 C494.507,294.565 494.789,294.892 494.801,294.975 C487.571,339.435 467.928,380.94 437.996,415.005 C435.262,418.117 435.568,422.856 438.68,425.59 C440.104,426.841 441.87,427.456 443.628,427.456 C445.711,427.456 447.782,426.594 449.265,424.907 C481.058,388.723 501.924,344.627 509.607,297.384 C510.388,292.58 508.872,287.83 505.445,284.35 C501.916,280.766 496.806,279.068 491.775,279.807 Z" id="Shape" fill="#071E22"></path>
            <path d="M416.01,437.005 C372.034,475.693 315.564,496.998 257.001,496.998 C223.244,496.998 190.596,490.158 159.963,476.666 C130.367,463.632 104.052,445.048 81.751,421.431 C59.485,397.852 42.469,370.573 31.175,340.351 C19.431,308.923 14.464,275.763 16.411,241.792 C19.446,188.838 40.651,137.456 76.119,97.109 C78.854,93.998 78.549,89.259 75.438,86.525 C72.328,83.79 67.588,84.094 64.854,87.206 C27.184,130.056 4.662,184.65 1.436,240.934 C-0.631,276.997 4.647,312.212 17.125,345.602 C29.124,377.71 47.198,406.688 70.846,431.729 C94.531,456.811 122.481,476.548 153.918,490.394 C186.468,504.729 221.15,511.997 257.001,511.997 C319.213,511.997 379.202,489.363 425.918,448.266 C429.028,445.53 429.331,440.791 426.595,437.681 C423.86,434.572 419.12,434.269 416.01,437.005 Z" id="Shape" fill="#000000"></path>
        </g>
    </g>
</svg>