<?xml version="1.0" encoding="utf-8"?>
<!-- Generator: Adobe Illustrator 22.1.0, SVG Export Plug-In . SVG Version: 6.00 Build 0)  -->
<svg version="1.2" baseProfile="tiny" id="Layer_6" xmlns="http://www.w3.org/2000/svg" xmlns:xlink="http://www.w3.org/1999/xlink"
	 x="0px" y="0px" viewBox="0 0 1878.9 1533.7" xml:space="preserve">
<image width="7523" height="5506" id="Evropa" xlink:href="1B70593011D90F89.png"  transform="matrix(0.24 0 0 0.24 73.3976 7.8372)">
</image>
<g id="JulijskeAlpe">
	<circle fill="#40B983" cx="900.5" cy="744.2" r="10.3"/>
	<circle fill="#40B983" cx="900.5" cy="774.4" r="10.3"/>
	<circle fill="#40B983" cx="930.8" cy="744.2" r="10.3"/>
	<circle fill="#40B983" cx="930.8" cy="713.9" r="10.3"/>
	<circle fill="#40B983" cx="930.8" cy="774.4" r="10.3"/>
	<circle fill="#40B983" cx="930.8" cy="804.7" r="10.3"/>
	<circle fill="#40B983" cx="961" cy="744.2" r="10.3"/>
	<circle fill="#40B983" cx="961" cy="774.4" r="10.3"/>
	<circle fill="#40B983" cx="961" cy="804.7" r="10.3"/>
	<circle fill="#40B983" cx="991.3" cy="744.2" r="10.3"/>
</g>
<g id="Slovenija">
	<circle fill="#679289" cx="900.5" cy="804.7" r="10.3"/>
	<circle fill="#679289" cx="991.3" cy="774.4" r="10.3"/>
	<circle fill="#679289" cx="991.3" cy="804.7" r="10.3"/>
	<circle fill="#679289" cx="1021.5" cy="744.2" r="10.3"/>
	<circle fill="#679289" cx="1021.5" cy="774.4" r="10.3"/>
	<circle fill="#679289" cx="1021.5" cy="804.7" r="10.3"/>
	<circle fill="#679289" cx="1051.8" cy="744.2" r="10.3"/>
	<circle fill="#679289" cx="1051.8" cy="774.4" r="10.3"/>
	<circle fill="#679289" cx="1051.8" cy="804.7" r="10.3"/>
	<circle fill="#679289" cx="1082" cy="744.2" r="10.3"/>
	<circle fill="#679289" cx="1082" cy="713.9" r="10.3"/>
	<circle fill="#679289" cx="1082" cy="774.4" r="10.3"/>
	<circle fill="#679289" cx="1112.3" cy="744.2" r="10.3"/>
	<circle fill="#679289" cx="1112.3" cy="713.9" r="10.3"/>
	<circle fill="#679289" cx="1112.3" cy="774.4" r="10.3"/>
	<circle fill="#679289" cx="1142.6" cy="744.2" r="10.3"/>
	<circle fill="#679289" cx="1142.6" cy="713.9" r="10.3"/>
	<circle fill="#679289" cx="1172.8" cy="744.2" r="10.3"/>
	<circle fill="#679289" cx="1082" cy="804.7" r="10.3"/>
	<circle fill="#679289" cx="930.8" cy="834.8" r="10.3"/>
	<circle fill="#679289" cx="961" cy="834.8" r="10.3"/>
	<circle fill="#679289" cx="991.3" cy="834.8" r="10.3"/>
	<circle fill="#679289" cx="1021.5" cy="834.8" r="10.3"/>
	<circle fill="#679289" cx="1051.8" cy="834.8" r="10.3"/>
	<circle fill="#679289" cx="1082" cy="834.8" r="10.3"/>
	<circle fill="#679289" cx="930.8" cy="865" r="10.3"/>
	<circle fill="#679289" cx="961" cy="865" r="10.3"/>
	<circle fill="#679289" cx="1021.5" cy="865" r="10.3"/>
	<circle fill="#679289" cx="1051.8" cy="865" r="10.3"/>
</g>
</svg>
