<?xml version="1.0" encoding="UTF-8"?>
<svg width="388px" height="164px" viewBox="0 0 388 164" version="1.1" xmlns="http://www.w3.org/2000/svg" xmlns:xlink="http://www.w3.org/1999/xlink">
    <!-- Generator: Sketch 51 (57462) - http://www.bohemiancoding.com/sketch -->
    <title>footerMountain</title>
    <desc>Created with Sketch.</desc>
    <defs></defs>
    <g id="Page-1" stroke="none" stroke-width="1" fill="none" fill-rule="evenodd">
        <g id="JulijskeLanding_V03" transform="translate(-133.000000, -2785.000000)" fill="#679289">
            <path d="M213.83886,2845.79251 L110,2979 L212.654662,2861.1242 L175.883105,2953.55447 L219.240122,2889.95926 L206.731476,2939.44458 L231.079914,2906.28503 L244.053467,2888.50973 L239.908772,2930.67955 L273.678167,2878.64989 L262.421702,2916.44047 L313.796181,2831.98916 L387.185789,2921.51381 L345.469106,2830.67758 C361.868063,2855.72898 415.920147,2921.46783 411.889486,2912.96774 C407.856632,2904.46546 377.372292,2839.25431 377.372292,2839.25431 C377.372292,2839.25431 424.352079,2901.95835 422.433239,2898.60824 C421.295092,2896.6135 400.729511,2859.47542 384.253801,2829.70977 L470.954677,2958.73729 L434.889253,2874.91878 C446.875974,2889.22135 488.296607,2938.60158 487.853629,2937.37321 C487.33609,2935.93682 455.233345,2879.217 455.233345,2879.217 L543,2979 L447.268514,2849.62652 L423.571385,2872.08104 L361.953588,2785 L334.107379,2827.16982 L310.408058,2800.88348 L252.941535,2880.84169 L213.83886,2845.79251 Z" id="footerMountain"></path>
        </g>
    </g>
</svg>