<?xml version="1.0" encoding="UTF-8"?>
<svg width="97px" height="62px" viewBox="0 0 97 62" version="1.1" xmlns="http://www.w3.org/2000/svg" xmlns:xlink="http://www.w3.org/1999/xlink">
    <!-- Generator: Sketch 51 (57462) - http://www.bohemiancoding.com/sketch -->
    <title>ikonaGoraInverted</title>
    <desc>Created with Sketch.</desc>
    <defs>
        <path d="M79.536,43.441 L0,43.441 L3.946,36.595 L16.231,15.311 C18.406,11.551 21.953,11.551 24.12,15.311 C24.12,15.311 26.973,20.253 27.317,20.831 C28.951,18.006 37.658,2.915 37.658,2.915 C39.838,-0.845 43.383,-0.845 45.552,2.915 L62.853,32.883 C63.744,31.335 64.624,29.819 65.296,28.627 C66.87,25.914 69.423,25.914 71.003,28.627 C72.566,31.351 75.13,35.793 76.704,38.496 L79.536,43.441 Z" id="path-1"></path>
        <filter x="-22.0%" y="-28.8%" width="144.0%" height="180.7%" filterUnits="objectBoundingBox" id="filter-2">
            <feOffset dx="0" dy="5" in="SourceAlpha" result="shadowOffsetOuter1"></feOffset>
            <feGaussianBlur stdDeviation="5" in="shadowOffsetOuter1" result="shadowBlurOuter1"></feGaussianBlur>
            <feColorMatrix values="0 0 0 0 0   0 0 0 0 0   0 0 0 0 0  0 0 0 0.2 0" type="matrix" in="shadowBlurOuter1"></feColorMatrix>
        </filter>
    </defs>
    <g id="Page-1" stroke="none" stroke-width="1" fill="none" fill-rule="evenodd">
        <g id="ikonaGoraInverted" transform="translate(9.000000, -14.000000)">
            <rect id="Rectangle-9" x="0" y="0" width="80" height="80"></rect>
            <g id="mountain-summit" transform="translate(0.000000, 18.000000)" fill-rule="nonzero">
                <g id="Shape">
                    <use fill="black" fill-opacity="1" filter="url(#filter-2)" xlink:href="#path-1"></use>
                    <use fill="#071E22" xlink:href="#path-1"></use>
                </g>
            </g>
        </g>
    </g>
</svg>