<?xml version="1.0" encoding="UTF-8"?>
<svg width="512px" height="512px" viewBox="0 0 512 512" version="1.1" xmlns="http://www.w3.org/2000/svg" xmlns:xlink="http://www.w3.org/1999/xlink">
    <!-- Generator: Sketch 51 (57462) - http://www.bohemiancoding.com/sketch -->
    <title>like</title>
    <desc>Created with Sketch.</desc>
    <defs></defs>
    <g id="Page-1" stroke="none" stroke-width="1" fill="none" fill-rule="evenodd">
        <g id="like" fill-rule="nonzero">
            <path d="M170.409,299.115 L170.409,263.318 C170.409,250.884 160.329,240.805 147.896,240.805 L10,240.805 L10,500.156 L147.896,500.156 C160.33,500.156 170.409,490.076 170.409,477.643 L170.409,366.203 L170.409,299.115 Z" id="Shape" fill="#26C485"></path>
            <path d="M469.581,307.487 L443.56,307.484 C461.464,307.484 475.979,292.97 475.979,275.065 C475.979,257.161 461.465,242.646 443.56,242.646 L318.36,242.646 L337.36,186.236 C347.706,155.519 330.62,122.328 299.61,112.9 L282.065,107.566 L254.496,183.761 C245.848,207.663 228.747,227.572 206.424,239.727 L169.739,259.703 L170.408,482.927 L193.737,492.076 C210.457,498.633 228.257,501.999 246.217,501.999 L351.598,501.999 L385.816,501.999 L420.952,501.999 C438.856,501.999 453.371,487.485 453.371,469.58 C453.371,451.676 438.857,437.161 420.952,437.161 L446.153,437.161 C464.057,437.161 478.572,422.647 478.572,404.742 C478.572,386.838 464.058,372.323 446.153,372.323 L469.581,372.323 C487.485,372.323 502,357.809 502,339.904 C502,322.001 487.486,307.487 469.581,307.487 Z" id="Shape" fill="#FFCDAC"></path>
            <circle id="Oval" fill="#FFFFFF" cx="109.17" cy="443.54" r="18.01"></circle>
            <path d="M170.41,327.89 C167.779,327.89 165.2,328.951 163.34,330.81 C161.48,332.68 160.41,335.26 160.41,337.88 C160.41,340.52 161.479,343.09 163.34,344.95 C165.2,346.819 167.779,347.88 170.41,347.88 C173.04,347.88 175.62,346.819 177.479,344.95 C179.339,343.09 180.41,340.519 180.41,337.88 C180.41,335.26 179.34,332.68 177.479,330.81 C175.62,328.95 173.04,327.89 170.41,327.89 Z" id="Shape" fill="#000000"></path>
            <path d="M512,339.906 C512,319.711 497.809,302.778 478.878,298.526 C483.36,291.802 485.979,283.734 485.979,275.065 C485.979,251.675 466.95,232.646 443.56,232.646 L332.28,232.646 L346.837,189.429 C352.712,171.988 351.308,153.371 342.885,137.008 C334.462,120.646 320.126,108.686 302.52,103.333 L284.975,98 C279.876,96.449 274.472,99.163 272.662,104.165 L245.093,180.359 C237.268,201.984 221.837,219.949 201.642,230.945 L174.101,245.943 C168.177,237.887 158.639,232.647 147.896,232.647 L10,232.647 C4.478,232.647 0,237.125 0,242.647 L0,501.999 C0,507.521 4.478,511.999 10,511.999 L147.896,511.999 C159.859,511.999 170.326,505.5 175.972,495.852 L190.087,501.388 C208.045,508.43 226.93,512 246.217,512 L420.952,512 C444.342,512 463.371,492.971 463.371,469.581 C463.371,460.842 460.713,452.714 456.166,445.957 C474.738,441.444 488.572,424.683 488.572,404.743 C488.572,395.832 485.804,387.558 481.091,380.724 C498.903,375.694 512,359.306 512,339.906 Z M469.581,362.324 L446.153,362.324 L400.227,362.324 L366.726,362.324 C361.204,362.324 356.726,366.802 356.726,372.324 C356.726,377.846 361.204,382.324 366.726,382.324 L400.227,382.324 L446.153,382.324 C458.515,382.324 468.572,392.381 468.572,404.743 C468.572,417.105 458.515,427.162 446.153,427.162 L420.952,427.162 L370.133,427.162 L366.727,427.162 C361.205,427.162 356.727,431.64 356.727,437.162 C356.727,442.684 361.205,447.162 366.727,447.162 L370.133,447.162 L420.952,447.162 C433.314,447.162 443.371,457.219 443.371,469.581 C443.371,481.943 433.314,492 420.952,492 L246.217,492 C229.439,492 213.011,488.894 197.389,482.768 L180.41,476.109 L180.41,378 C180.41,372.478 175.932,368 170.41,368 C164.888,368 160.41,372.478 160.41,378 L160.41,479.484 C160.41,486.384 154.797,491.998 147.896,491.998 L20,492 L20,252.646 L147.896,252.646 C154.796,252.646 160.41,258.259 160.41,265.16 L160.41,299.115 C160.41,304.637 164.888,309.115 170.41,309.115 C175.932,309.115 180.41,304.637 180.41,299.115 L180.41,265.28 L211.207,248.509 C235.698,235.174 254.411,213.388 263.9,187.163 L288.24,119.895 L296.702,122.467 C309.091,126.234 319.177,134.648 325.103,146.161 C331.03,157.674 332.017,170.772 327.884,183.043 L308.884,239.452 C307.856,242.504 308.361,245.863 310.238,248.478 C312.117,251.093 315.14,252.644 318.36,252.644 L443.56,252.644 C455.922,252.644 465.979,262.701 465.979,275.063 C465.979,287.425 455.922,297.482 443.56,297.482 L366.726,297.482 C361.204,297.482 356.726,301.96 356.726,307.482 C356.726,313.004 361.204,317.482 366.726,317.482 L400.169,317.482 C400.189,317.482 400.208,317.485 400.227,317.485 L469.581,317.485 C481.943,317.485 492,327.542 492,339.904 C492,352.268 481.943,362.324 469.581,362.324 Z" id="Shape" fill="#071E22"></path>
            <path d="M109.173,415.53 C93.728,415.53 81.162,428.095 81.162,443.54 C81.162,458.985 93.727,471.551 109.173,471.551 C124.619,471.551 137.184,458.986 137.184,443.54 C137.184,428.096 124.618,415.53 109.173,415.53 Z M109.173,451.551 C104.756,451.551 101.162,447.957 101.162,443.54 C101.162,439.123 104.756,435.53 109.173,435.53 C113.59,435.53 117.184,439.123 117.184,443.54 C117.184,447.957 113.59,451.551 109.173,451.551 Z" id="Shape" fill="#071E22"></path>
            <path d="M298.819,20 C301.45,20 304.029,18.93 305.889,17.069 C307.749,15.21 308.819,12.63 308.819,10 C308.819,7.37 307.75,4.79 305.889,2.93 C304.028,1.07 301.45,0 298.819,0 C296.189,0 293.609,1.069 291.75,2.93 C289.89,4.79 288.819,7.37 288.819,10 C288.819,12.63 289.889,15.21 291.75,17.069 C293.609,18.93 296.189,20 298.819,20 Z" id="Shape" fill="#071E22"></path>
            <path d="M298.82,37.333 C293.298,37.333 288.82,41.811 288.82,47.333 L288.82,71.667 C288.82,77.189 293.298,81.667 298.82,81.667 C304.342,81.667 308.82,77.189 308.82,71.667 L308.82,47.333 C308.82,41.811 304.343,37.333 298.82,37.333 Z" id="Shape" fill="#071E22"></path>
            <path d="M358.393,141.266 C358.393,146.788 362.871,151.266 368.393,151.266 L430.059,151.266 C435.581,151.266 440.059,146.788 440.059,141.266 C440.059,135.744 435.581,131.266 430.059,131.266 L368.393,131.266 C362.87,131.266 358.393,135.743 358.393,141.266 Z" id="Shape" fill="#071E22"></path>
            <path d="M167.554,151.239 L229.221,151.239 C234.743,151.239 239.221,146.761 239.221,141.239 C239.221,135.717 234.743,131.239 229.221,131.239 L167.554,131.239 C162.032,131.239 157.554,135.717 157.554,141.239 C157.554,146.761 162.031,151.239 167.554,151.239 Z" id="Shape" fill="#071E22"></path>
            <path d="M235.207,91.776 C237.16,93.728 239.719,94.705 242.278,94.705 C244.837,94.705 247.396,93.728 249.349,91.776 C253.254,87.871 253.254,81.539 249.349,77.633 L220.234,48.518 C216.328,44.614 209.998,44.614 206.091,48.518 C202.186,52.423 202.186,58.755 206.091,62.661 L235.207,91.776 Z" id="Shape" fill="#071E22"></path>
            <path d="M355.354,94.724 C357.914,94.724 360.472,93.747 362.425,91.795 L391.54,62.68 C395.445,58.775 395.445,52.443 391.54,48.537 C387.634,44.633 381.304,44.633 377.397,48.537 L348.282,77.652 C344.377,81.557 344.377,87.889 348.282,91.795 C350.235,93.747 352.794,94.724 355.354,94.724 Z" id="Shape" fill="#071E22"></path>
        </g>
    </g>
</svg>