<?xml version="1.0" encoding="utf-8"?>
<!-- Generator: Adobe Illustrator 22.1.0, SVG Export Plug-In . SVG Version: 6.00 Build 0)  -->
<svg version="1.1" id="Layer_1" xmlns="http://www.w3.org/2000/svg" xmlns:xlink="http://www.w3.org/1999/xlink" x="0px" y="0px"
	 viewBox="0 0 1048.3 744" style="enable-background:new 0 0 1048.3 744;" xml:space="preserve">
<style type="text/css">
	.st0{fill:none;stroke:#071E22;stroke-width:11;stroke-miterlimit:10;}
	.st1{display:none;}
	.st2{display:inline;fill:#071E22;}
	.st3{display:inline;}
	.st4{fill:#071E22;}
	.st5{fill:none;}
</style>
<g id="Layer_2_1_">
	<path class="st0" d="M482.3,23.9c2.1-3.9,5.9-6.6,10.2-7.4c8.8-1.6,23.3-4.3,29.2-6c8.8-2.4,52.3,6.3,72.4,7.3
		c20.1,1,40.6,1,50.4,9.3s28.4,10.3,34.7,10.3s15.2,3.9,5.4,16.6s-11.7,34.2,20.1,38.1s24.9-1,38.6,15.2
		c13.7,16.1,29.8,10.8,37.2,22.5c7.3,11.7,2.4,17.1,22.5,23s30.8,11.7,37.2,12.7s25.6-7.8,25.6-20.6s3.3-18.5,12.8-20
		s8-22.4-12.8-28.7C845,90,834,96.2,834,83.4s30.1-3.4,46.7,0s36.6,14.1,44.9,19.5c8.3,5.4,2.8,10.7,21.7,16.3
		c5.7,1.7,13.4,4.3,12.8,12.8c-0.6,8.5,6.8,31.1,30.7,49.9s36.2,25.7,36.2,38.5s-19.6-18.7-51.8-21.6s-43.2-16.8-75.9-4
		s-32.7,22.6-41,41.7s3.9,24.9,0,33.3c-3.9,8.3-29.9,9.8-37.2,21s-5.4,19.7-55.3,14.5c-49.9-5.2-42.6,13.4-67.5,16.3
		s-56.1,6.2-86.2-3.5c-30.2-9.7-21.9,51-45.4,64.8c-23.5,13.9-1,57.8-15.3,74.2s-9.4,34.7-66,39.9s-18.8,37.8-14.7,55.2
		s30.7,37.8,11.2,69.5c-19.4,31.7,8.2,82.1-100.1,100.8s-155.3,12.8-170.6-12.8s11.2-48.1,34.7-89s74.6-29.6,100.1-60.3
		s33.7-54.2,27.6-81.7c-6.1-27.6-7.2-37.8-53.1-51.1c-46-13.3-75.6-0.2-109.3-44.5s-70.5-95.5-154.3-96.5s-26.6-38.8,35.8-55.2
		s77.7,22.5,154.3,8.2s151.2-78.7,177.8-73.6c26.6,5.1,19.4-25.5-1-39.9C404.2,112.5,463.8,58.3,482.3,23.9z"/>
</g>
<g id="Layer_3" class="st1">
	<circle class="st2" cx="833.8" cy="83.4" r="15"/>
	<circle class="st2" cx="959.9" cy="132.1" r="15"/>
	<circle class="st2" cx="899.1" cy="194.8" r="15"/>
	<circle class="st2" cx="864.6" cy="144.9" r="15"/>
	<circle class="st2" cx="612" cy="318" r="15"/>
	<circle class="st2" cx="210.9" cy="709.6" r="15"/>
	<circle class="st2" cx="210.9" cy="382.9" r="15"/>
	<circle class="st2" cx="487.2" cy="19.8" r="15"/>
	<circle class="st2" cx="1026.9" cy="220.4" r="15"/>
</g>
<g id="Layer_4" class="st1">
	<g class="st3">
		<path class="st4" d="M500.2,55.4h-3.9l-5-5.7v5.7H488V42.9h3.3v5.4l4.9-5.4h3.8l-5.5,6L500.2,55.4z"/>
		<path class="st4" d="M511.7,55.4h-3.6l-2.2-4c-0.3-0.5-0.7-0.7-1.3-0.7h-1v4.7h-3.2V42.9h6c1.5,0,2.7,0.3,3.4,1s1.1,1.6,1.1,2.9
			c0,0.9-0.3,1.8-0.8,2.4c-0.5,0.7-1.3,1.1-2.2,1.3c0.7,0.2,1.3,0.6,1.7,1.4L511.7,55.4z M507.5,47.9c0.3-0.2,0.5-0.6,0.5-1.1
			s-0.2-0.9-0.5-1.1c-0.3-0.2-0.8-0.3-1.6-0.3h-2.3v2.9h2.3C506.6,48.3,507.2,48.2,507.5,47.9z"/>
		<path class="st4" d="M522.4,55.4l-1.1-2.6h-5.5l-1.1,2.6h-3.3l5.8-12.5h2.6l5.9,12.5H522.4z M516.8,50.4h3.4l-1.7-4L516.8,50.4z"
			/>
		<path class="st4" d="M534.5,42.9h3.1v12.5h-2.4l-5.7-7.2v7.2h-3V42.9h2.4l5.7,7.2L534.5,42.9L534.5,42.9z"/>
		<path class="st4" d="M538.6,53l1.5-0.1c0.4,0,0.8-0.1,0.9-0.3c0.2-0.2,0.3-0.5,0.3-0.9v-8.8h3.3v8.7c0,1.2-0.3,2.2-1,2.8
			s-1.6,1-3,1.1l-1.8,0.1L538.6,53z"/>
		<path class="st4" d="M548.6,55.2c-0.9-0.2-1.7-0.6-2.2-1l1-2.3c0.6,0.4,1.2,0.7,1.9,0.9s1.4,0.3,2.1,0.3c0.7,0,1.3-0.1,1.6-0.3
			c0.4-0.2,0.6-0.5,0.6-0.8s-0.2-0.6-0.5-0.8s-1-0.4-1.9-0.6c-1.2-0.2-2.1-0.5-2.8-0.9c-0.7-0.3-1.1-0.7-1.4-1.2s-0.4-1-0.4-1.7
			c0-0.8,0.2-1.5,0.6-2.1s1-1.1,1.8-1.4c0.8-0.3,1.7-0.5,2.7-0.5c0.9,0,1.8,0.1,2.6,0.4c0.8,0.3,1.5,0.6,2,1l-1,2.3
			c-1.1-0.8-2.3-1.2-3.6-1.2c-0.6,0-1.1,0.1-1.5,0.3s-0.6,0.5-0.6,0.9c0,0.2,0.1,0.4,0.2,0.6c0.1,0.1,0.4,0.3,0.7,0.4
			c0.4,0.1,0.9,0.3,1.6,0.4c1.1,0.2,2,0.5,2.7,0.9c0.7,0.3,1.1,0.8,1.4,1.2c0.3,0.5,0.4,1,0.4,1.7c0,1.2-0.5,2.2-1.4,2.9s-2.3,1-4,1
			C550.4,55.6,549.5,55.5,548.6,55.2z"/>
		<path class="st4" d="M570.8,55.4H567l-5-5.7v5.7h-3.3V42.9h3.3v5.4l4.9-5.4h3.8l-5.5,6L570.8,55.4z"/>
		<path class="st4" d="M580.4,55.4l-1.1-2.6h-5.5l-1.1,2.6h-3.3l5.8-12.5h2.6l5.9,12.5H580.4z M574.8,50.4h3.4l-1.7-4L574.8,50.4z"
			/>
		<path class="st4" d="M600.6,48.3v6.3c-0.7,0.3-1.4,0.5-2.2,0.7s-1.7,0.2-2.5,0.2c-1.4,0-2.5-0.3-3.5-0.8s-1.8-1.3-2.3-2.2
			c-0.5-1-0.8-2.1-0.8-3.4c0-1.3,0.3-2.4,0.8-3.4s1.3-1.7,2.3-2.2s2.1-0.8,3.4-0.8c0.9,0,1.8,0.1,2.6,0.4s1.4,0.6,1.9,1l-1,2.3
			c-0.6-0.4-1.1-0.7-1.7-0.8s-1.1-0.2-1.7-0.2c-1.1,0-2,0.3-2.5,0.9s-0.8,1.6-0.8,2.9c0,1.3,0.3,2.3,0.9,3s1.5,1,2.6,1
			c0.6,0,1.1-0.1,1.7-0.2v-2.3h-2.2v-2.2h5V48.3z"/>
		<path class="st4" d="M605.3,54.8c-0.9-0.5-1.7-1.3-2.2-2.2c-0.5-1-0.8-2.1-0.8-3.4c0-1.3,0.3-2.4,0.8-3.4s1.2-1.7,2.2-2.2
			c0.9-0.5,2.1-0.8,3.3-0.8s2.4,0.3,3.3,0.8c0.9,0.5,1.7,1.3,2.2,2.2c0.5,1,0.8,2.1,0.8,3.4c0,1.3-0.3,2.4-0.8,3.4s-1.2,1.7-2.2,2.2
			c-0.9,0.5-2,0.8-3.3,0.8C607.4,55.6,606.3,55.3,605.3,54.8z M610.9,52.1c0.5-0.7,0.8-1.6,0.8-2.9s-0.3-2.3-0.8-2.9
			c-0.5-0.7-1.3-1-2.2-1s-1.7,0.3-2.2,1s-0.8,1.6-0.8,2.9s0.3,2.3,0.8,2.9c0.5,0.7,1.3,1,2.2,1C609.6,53.1,610.4,52.7,610.9,52.1z"
			/>
		<path class="st4" d="M628.1,55.4h-3.6l-2.2-4c-0.3-0.5-0.7-0.7-1.3-0.7h-1v4.7h-3.2V42.9h6c1.5,0,2.7,0.3,3.4,1s1.1,1.6,1.1,2.9
			c0,0.9-0.3,1.8-0.8,2.4c-0.5,0.7-1.3,1.1-2.2,1.3c0.7,0.2,1.3,0.6,1.7,1.4L628.1,55.4z M623.9,47.9c0.3-0.2,0.5-0.6,0.5-1.1
			s-0.2-0.9-0.5-1.1c-0.3-0.2-0.8-0.3-1.6-0.3H620v2.9h2.3C623,48.3,623.6,48.2,623.9,47.9z"/>
		<path class="st4" d="M638.8,55.4l-1.1-2.6h-5.5l-1.1,2.6h-3.3l5.8-12.5h2.6l5.9,12.5H638.8z M633.2,50.4h3.4l-1.7-4L633.2,50.4z"
			/>
		<rect x="483.7" y="38" class="st5" width="161" height="23.4"/>
	</g>
	<g class="st3">
		<path class="st4" d="M763.5,59l1.5-0.1c0.4,0,0.8-0.1,0.9-0.3c0.2-0.2,0.3-0.5,0.3-0.9v-8.8h3.3v8.7c0,1.2-0.3,2.2-1,2.8
			s-1.6,1-3,1.1l-1.8,0.1L763.5,59z"/>
		<path class="st4" d="M771.7,61.4V48.9h8.9v2.5h-5.7v2.4h5.4v2.5h-5.4v2.6h5.7v2.5H771.7z"/>
		<path class="st4" d="M783.9,61.2c-0.9-0.2-1.7-0.6-2.2-1l1-2.3c0.6,0.4,1.2,0.7,1.9,0.9s1.4,0.3,2.1,0.3c0.7,0,1.3-0.1,1.6-0.3
			c0.4-0.2,0.6-0.5,0.6-0.8s-0.2-0.6-0.5-0.8s-1-0.4-1.9-0.6c-1.2-0.2-2.1-0.5-2.8-0.9c-0.7-0.3-1.1-0.7-1.4-1.2s-0.4-1-0.4-1.7
			c0-0.8,0.2-1.5,0.6-2.1s1-1.1,1.8-1.4c0.8-0.3,1.7-0.5,2.7-0.5c0.9,0,1.8,0.1,2.6,0.4c0.8,0.3,1.5,0.6,2,1l-1,2.3
			c-1.1-0.8-2.3-1.2-3.6-1.2c-0.6,0-1.1,0.1-1.5,0.3s-0.6,0.5-0.6,0.9c0,0.2,0.1,0.4,0.2,0.6c0.1,0.1,0.4,0.3,0.7,0.4
			c0.4,0.1,0.9,0.3,1.6,0.4c1.1,0.2,2,0.5,2.7,0.9c0.7,0.3,1.1,0.8,1.4,1.2c0.3,0.5,0.4,1,0.4,1.7c0,1.2-0.5,2.2-1.4,2.9s-2.3,1-4,1
			C785.7,61.6,784.8,61.5,783.9,61.2z"/>
		<path class="st4" d="M793.9,61.4V48.9h8.9v2.5h-5.7v2.4h5.4v2.5h-5.4v2.6h5.7v2.5H793.9z"/>
		<path class="st4" d="M812.7,48.9h3.1v12.5h-2.4l-5.7-7.2v7.2h-3V48.9h2.4l5.7,7.2L812.7,48.9L812.7,48.9z"/>
		<path class="st4" d="M818,61.4V48.9h3.3v12.5H818z"/>
		<path class="st4" d="M826.2,60.8c-1-0.5-1.7-1.3-2.2-2.3s-0.8-2.1-0.8-3.4s0.3-2.4,0.8-3.4s1.3-1.7,2.2-2.2c1-0.5,2.1-0.8,3.4-0.8
			c0.8,0,1.6,0.1,2.4,0.4c0.8,0.2,1.4,0.6,1.9,1l-1,2.3c-1-0.7-2.1-1.1-3.2-1.1c-1,0-1.8,0.3-2.3,1c-0.5,0.6-0.8,1.6-0.8,2.9
			s0.3,2.2,0.8,2.9s1.3,1,2.3,1c1.1,0,2.1-0.4,3.2-1.1l1,2.3c-0.5,0.4-1.1,0.7-1.9,1c-0.8,0.2-1.6,0.4-2.4,0.4
			C828.3,61.6,827.2,61.3,826.2,60.8z"/>
		<path class="st4" d="M835.6,61.4V48.9h8.9v2.5h-5.7v2.4h5.4v2.5h-5.4v2.6h5.7v2.5H835.6z"/>
		<rect x="759.9" y="42.7" class="st5" width="88.9" height="23.9"/>
	</g>
	<g class="st3">
		<path class="st4" d="M947.5,103.9h5.8v2.6h-9.4v-2.4l5.6-7.6h-5.6v-2.6h9.2v2.3L947.5,103.9z M949.6,90.1h2.3l-2.4,2.8h-1.7
			l-2.4-2.8h2.3l1,1.4L949.6,90.1z"/>
		<path class="st4" d="M955.1,106.5V93.9h3.3v12.5L955.1,106.5L955.1,106.5z"/>
		<path class="st4" d="M971.9,106.5h-3.6l-2.2-4c-0.3-0.5-0.7-0.7-1.3-0.7h-1v4.7h-3.2V93.9h6c1.5,0,2.7,0.3,3.4,1s1.1,1.6,1.1,2.9
			c0,0.9-0.3,1.8-0.8,2.4c-0.5,0.7-1.3,1.1-2.2,1.3c0.7,0.2,1.3,0.6,1.7,1.4L971.9,106.5z M967.7,99c0.3-0.2,0.5-0.6,0.5-1.1
			s-0.2-0.9-0.5-1.1s-0.8-0.3-1.6-0.3h-2.3v2.9h2.3C966.8,99.3,967.3,99.2,967.7,99z"/>
		<path class="st4" d="M975.7,105.8c-0.9-0.5-1.7-1.3-2.2-2.2c-0.5-1-0.8-2.1-0.8-3.4s0.3-2.4,0.8-3.4s1.2-1.7,2.2-2.2
			c0.9-0.5,2.1-0.8,3.3-0.8s2.4,0.3,3.3,0.8c0.9,0.5,1.7,1.3,2.2,2.2c0.5,1,0.8,2.1,0.8,3.4s-0.3,2.4-0.8,3.4s-1.2,1.7-2.2,2.2
			c-0.9,0.5-2,0.8-3.3,0.8C977.8,106.6,976.7,106.4,975.7,105.8z M981.3,103.1c0.5-0.7,0.8-1.6,0.8-2.9s-0.3-2.3-0.8-2.9
			c-0.5-0.7-1.3-1-2.2-1s-1.7,0.3-2.2,1s-0.8,1.6-0.8,2.9s0.3,2.3,0.8,2.9c0.5,0.7,1.3,1,2.2,1S980.8,103.8,981.3,103.1z"/>
		<path class="st4" d="M996,93.9h3.3l-5.7,12.5H991l-5.7-12.5h3.4l3.6,8.5L996,93.9z"/>
		<path class="st4" d="M1008.2,93.9h3.1v12.5h-2.4l-5.7-7.2v7.2h-3V93.9h2.4l5.7,7.2L1008.2,93.9L1008.2,93.9z"/>
		<path class="st4" d="M1013.5,106.5V93.9h3.3v12.5L1013.5,106.5L1013.5,106.5z"/>
		<path class="st4" d="M1021.8,105.8c-1-0.5-1.7-1.3-2.2-2.3s-0.8-2.1-0.8-3.4s0.3-2.4,0.8-3.4s1.3-1.7,2.2-2.2
			c1-0.5,2.1-0.8,3.4-0.8c0.8,0,1.6,0.1,2.4,0.4c0.8,0.2,1.4,0.6,1.9,1l-1,2.3c-1-0.7-2.1-1.1-3.2-1.1c-1,0-1.8,0.3-2.3,1
			c-0.5,0.6-0.8,1.6-0.8,2.9s0.3,2.2,0.8,2.9s1.3,1,2.3,1c1.1,0,2.1-0.4,3.2-1.1l1,2.3c-0.5,0.4-1.1,0.7-1.9,1
			c-0.8,0.2-1.6,0.4-2.4,0.4C1023.9,106.6,1022.7,106.4,1021.8,105.8z"/>
		<path class="st4" d="M1040.5,106.5l-1.1-2.6h-5.5l-1.1,2.6h-3.3l5.8-12.5h2.6l5.9,12.5H1040.5z M1034.9,101.4h3.4l-1.7-4
			L1034.9,101.4z"/>
		<rect x="936.3" y="83.4" class="st5" width="109.6" height="28.5"/>
	</g>
	<g class="st3">
		<path class="st4" d="M929.6,253.9H926l-2.2-4c-0.3-0.5-0.7-0.7-1.3-0.7h-1v4.7h-3.2v-12.5h6c1.5,0,2.7,0.3,3.4,1s1.1,1.6,1.1,2.9
			c0,0.9-0.3,1.8-0.8,2.4c-0.5,0.7-1.3,1.1-2.2,1.3c0.7,0.2,1.3,0.6,1.7,1.4L929.6,253.9z M925.3,246.4c0.3-0.2,0.5-0.6,0.5-1.1
			s-0.2-0.9-0.5-1.1c-0.3-0.2-0.8-0.3-1.6-0.3h-2.3v2.9h2.3C924.5,246.8,925,246.7,925.3,246.4z"/>
		<path class="st4" d="M940.2,253.9l-1.1-2.6h-5.5l-1.1,2.6h-3.3l5.8-12.5h2.6l5.9,12.5H940.2z M934.6,248.9h3.4l-1.7-4L934.6,248.9
			z"/>
		<path class="st4" d="M944.2,241.4h5.1c1.4,0,2.6,0.2,3.6,0.7s1.8,1.2,2.3,2.2c0.5,0.9,0.8,2.1,0.8,3.3c0,1.3-0.3,2.4-0.8,3.4
			c-0.5,0.9-1.3,1.7-2.3,2.2s-2.2,0.7-3.6,0.7h-5.1V241.4z M949.1,251.3c1.2,0,2.1-0.3,2.8-0.9c0.6-0.6,0.9-1.5,0.9-2.7
			s-0.3-2.1-0.9-2.7c-0.6-0.6-1.5-0.9-2.8-0.9h-1.6v7.3h1.6V251.3z"/>
		<path class="st4" d="M960.6,253.3c-0.9-0.5-1.7-1.3-2.2-2.2c-0.5-1-0.8-2.1-0.8-3.4c0-1.3,0.3-2.4,0.8-3.4s1.2-1.7,2.2-2.2
			c0.9-0.5,2.1-0.8,3.3-0.8s2.4,0.3,3.3,0.8c0.9,0.5,1.7,1.3,2.2,2.2c0.5,1,0.8,2.1,0.8,3.4c0,1.3-0.3,2.4-0.8,3.4s-1.2,1.7-2.2,2.2
			c-0.9,0.5-2,0.8-3.3,0.8S961.5,253.8,960.6,253.3z M966.1,250.6c0.5-0.7,0.8-1.6,0.8-2.9s-0.3-2.3-0.8-2.9c-0.5-0.7-1.3-1-2.2-1
			s-1.7,0.3-2.2,1s-0.8,1.6-0.8,2.9s0.3,2.3,0.8,2.9c0.5,0.7,1.3,1,2.2,1S965.6,251.2,966.1,250.6z"/>
		<path class="st4" d="M980.9,241.4h3.3l-5.7,12.5h-2.6l-5.7-12.5h3.4l3.6,8.5L980.9,241.4z"/>
		<path class="st4" d="M984.9,253.9v-12.5h3.3v9.9h5.3v2.6H984.9z"/>
		<path class="st4" d="M994.6,251.5l1.5-0.1c0.4,0,0.8-0.1,0.9-0.3c0.2-0.2,0.3-0.5,0.3-0.9v-8.8h3.3v8.7c0,1.2-0.3,2.2-1,2.8
			s-1.6,1-3,1.1l-1.8,0.1L994.6,251.5z"/>
		<path class="st4" d="M1002.8,253.9v-12.5h3.3v12.5H1002.8z"/>
		<path class="st4" d="M1011,253.3c-1-0.5-1.7-1.3-2.2-2.3s-0.8-2.1-0.8-3.4s0.3-2.4,0.8-3.4s1.3-1.7,2.2-2.2c1-0.5,2.1-0.8,3.4-0.8
			c0.8,0,1.6,0.1,2.4,0.4c0.8,0.2,1.4,0.6,1.9,1l-1,2.3c-1-0.7-2.1-1.1-3.2-1.1c-1,0-1.8,0.3-2.3,1c-0.5,0.6-0.8,1.6-0.8,2.9
			s0.3,2.2,0.8,2.9s1.3,1,2.3,1c1.1,0,2.1-0.4,3.2-1.1l1,2.3c-0.5,0.4-1.1,0.7-1.9,1c-0.8,0.2-1.6,0.4-2.4,0.4
			C1013.1,254.1,1012,253.8,1011,253.3z"/>
		<path class="st4" d="M1029.8,253.9l-1.1-2.6h-5.5l-1.1,2.6h-3.3l5.8-12.5h2.6l5.9,12.5H1029.8z M1024.2,248.9h3.4l-1.7-4
			L1024.2,248.9z"/>
		<rect x="912.5" y="235.4" class="st5" width="124.1" height="24.1"/>
	</g>
	<g class="st3">
		<path class="st4" d="M841,191c0.4,0.5,0.6,1.2,0.6,1.9s-0.2,1.3-0.5,1.8c-0.4,0.5-0.9,0.9-1.5,1.2c-0.7,0.3-1.5,0.4-2.4,0.4H831
			v-12.5h6.1c1.3,0,2.4,0.3,3.1,0.9c0.8,0.6,1.2,1.4,1.2,2.4c0,0.6-0.2,1.2-0.5,1.7s-0.8,0.9-1.4,1.1C840,190.1,840.6,190.4,841,191
			z M834.1,188.7h2.3c0.6,0,1.1-0.1,1.3-0.3s0.4-0.5,0.4-0.9s-0.1-0.8-0.4-1c-0.3-0.2-0.7-0.3-1.3-0.3h-2.3V188.7z M838.1,193.6
			c0.3-0.2,0.4-0.5,0.4-1s-0.1-0.8-0.4-1c-0.3-0.2-0.7-0.3-1.4-0.3h-2.6v2.7h2.6C837.4,193.9,837.9,193.8,838.1,193.6z"/>
		<path class="st4" d="M843.3,196.3v-12.5h3.3v9.9h5.3v2.6H843.3z"/>
		<path class="st4" d="M853.4,196.3v-12.5h8.9v2.5h-5.7v2.4h5.4v2.5h-5.4v2.6h5.7v2.5H853.4z"/>
		<path class="st4" d="M864,183.8h5.1c1.4,0,2.6,0.2,3.6,0.7s1.8,1.2,2.3,2.2c0.5,0.9,0.8,2.1,0.8,3.3c0,1.3-0.3,2.4-0.8,3.4
			c-0.5,0.9-1.3,1.7-2.3,2.2s-2.2,0.7-3.6,0.7H864V183.8z M868.9,193.7c1.2,0,2.1-0.3,2.8-0.9c0.6-0.6,0.9-1.5,0.9-2.7
			s-0.3-2.1-0.9-2.7c-0.6-0.6-1.5-0.9-2.8-0.9h-1.6v7.3h1.6V193.7z"/>
		<rect x="821.3" y="177.5" class="st5" width="58.3" height="23.6"/>
	</g>
	<g class="st3">
		<path class="st4" d="M623.2,290.1c0.4,0.5,0.6,1.2,0.6,1.9c0,0.7-0.2,1.3-0.5,1.8c-0.4,0.5-0.9,0.9-1.5,1.2
			c-0.7,0.3-1.5,0.4-2.4,0.4h-6.2v-12.5h6.1c1.3,0,2.4,0.3,3.1,0.9c0.8,0.6,1.2,1.4,1.2,2.4c0,0.6-0.2,1.2-0.5,1.7s-0.8,0.9-1.4,1.1
			C622.2,289.2,622.8,289.6,623.2,290.1z M616.3,287.9h2.3c0.6,0,1.1-0.1,1.3-0.3s0.4-0.5,0.4-0.9s-0.1-0.8-0.4-1
			c-0.3-0.2-0.7-0.3-1.3-0.3h-2.3V287.9z M620.3,292.7c0.3-0.2,0.4-0.5,0.4-1s-0.1-0.8-0.4-1c-0.3-0.2-0.7-0.3-1.4-0.3h-2.6v2.7h2.6
			C619.6,293,620,292.9,620.3,292.7z"/>
		<path class="st4" d="M628.1,294.8c-0.9-0.5-1.7-1.3-2.2-2.2c-0.5-1-0.8-2.1-0.8-3.4s0.3-2.4,0.8-3.4s1.2-1.7,2.2-2.2
			c0.9-0.5,2.1-0.8,3.3-0.8s2.4,0.3,3.3,0.8c0.9,0.5,1.7,1.3,2.2,2.2c0.5,1,0.8,2.1,0.8,3.4s-0.3,2.4-0.8,3.4s-1.2,1.7-2.2,2.2
			c-0.9,0.5-2,0.8-3.3,0.8C630.1,295.6,629,295.4,628.1,294.8z M633.6,292.1c0.5-0.7,0.8-1.6,0.8-2.9s-0.3-2.3-0.8-2.9
			c-0.5-0.7-1.3-1-2.2-1s-1.7,0.3-2.2,1s-0.8,1.6-0.8,2.9s0.3,2.3,0.8,2.9c0.5,0.7,1.3,1,2.2,1S633.1,292.8,633.6,292.1z"/>
		<path class="st4" d="M647.9,282.9h3.2v12.5h-3.2v-5.1h-5.1v5.1h-3.2v-12.5h3.2v4.9h5.1V282.9z"/>
		<path class="st4" d="M653.4,295.5V283h3.3v12.5H653.4z"/>
		<path class="st4" d="M667,282.9h3.1v12.5h-2.4l-5.7-7.2v7.2h-3v-12.5h2.4l5.7,7.2L667,282.9L667,282.9z"/>
		<path class="st4" d="M671.2,293.1l1.5-0.1c0.4,0,0.8-0.1,0.9-0.3c0.2-0.2,0.3-0.5,0.3-0.9V283h3.3v8.7c0,1.2-0.3,2.2-1,2.8
			c-0.7,0.6-1.6,1-3,1.1l-1.8,0.1L671.2,293.1z"/>
		<rect x="603.6" y="273.5" class="st5" width="82.3" height="28"/>
	</g>
	<g class="st3">
		<path class="st4" d="M241.4,693.7v6.3c-0.7,0.3-1.4,0.5-2.2,0.7s-1.7,0.2-2.5,0.2c-1.4,0-2.5-0.3-3.5-0.8s-1.8-1.3-2.3-2.2
			c-0.5-1-0.8-2.1-0.8-3.4c0-1.3,0.3-2.4,0.8-3.4s1.3-1.7,2.3-2.2s2.1-0.8,3.4-0.8c0.9,0,1.8,0.1,2.6,0.4c0.8,0.2,1.4,0.6,1.9,1
			l-1,2.3c-0.6-0.4-1.1-0.7-1.7-0.8s-1.1-0.2-1.7-0.2c-1.1,0-2,0.3-2.5,0.9s-0.8,1.6-0.8,2.9c0,1.3,0.3,2.3,0.9,3s1.5,1,2.6,1
			c0.6,0,1.1-0.1,1.7-0.2v-2.3h-2.2v-2.2h5V693.7z"/>
		<path class="st4" d="M246.2,700.1c-0.9-0.5-1.7-1.3-2.2-2.2c-0.5-1-0.8-2.1-0.8-3.4c0-1.3,0.3-2.4,0.8-3.4s1.2-1.7,2.2-2.2
			s2.1-0.8,3.3-0.8s2.4,0.3,3.3,0.8s1.7,1.3,2.2,2.2c0.5,1,0.8,2.1,0.8,3.4c0,1.3-0.3,2.4-0.8,3.4s-1.2,1.7-2.2,2.2
			c-0.9,0.5-2,0.8-3.3,0.8C248.2,700.9,247.1,700.6,246.2,700.1z M251.7,697.4c0.5-0.7,0.8-1.6,0.8-2.9s-0.3-2.2-0.8-2.9
			s-1.3-1-2.2-1s-1.7,0.3-2.2,1s-0.8,1.6-0.8,2.9s0.3,2.3,0.8,2.9c0.5,0.7,1.3,1,2.2,1C250.5,698.4,251.2,698.1,251.7,697.4z"/>
		<path class="st4" d="M269,700.8h-3.6l-2.2-4c-0.3-0.5-0.7-0.7-1.3-0.7h-1v4.7h-3.2v-12.5h6c1.5,0,2.7,0.3,3.4,1s1.1,1.6,1.1,2.9
			c0,0.9-0.3,1.8-0.8,2.4s-1.3,1.1-2.2,1.3c0.7,0.2,1.3,0.6,1.7,1.4L269,700.8z M264.7,693.3c0.3-0.2,0.5-0.6,0.5-1.1
			s-0.2-0.9-0.5-1.1c-0.3-0.2-0.8-0.3-1.6-0.3h-2.3v2.9h2.3C263.9,693.6,264.4,693.5,264.7,693.3z"/>
		<path class="st4" d="M270.3,700.8v-12.5h3.3v12.5H270.3z"/>
		<path class="st4" d="M277.6,700.5c-0.9-0.2-1.7-0.6-2.2-1l1-2.3c0.6,0.4,1.2,0.7,1.9,0.9c0.7,0.2,1.4,0.3,2.1,0.3s1.3-0.1,1.6-0.3
			s0.6-0.5,0.6-0.8s-0.2-0.6-0.5-0.8s-1-0.4-1.9-0.6c-1.2-0.2-2.1-0.5-2.8-0.9c-0.7-0.3-1.1-0.7-1.4-1.2s-0.4-1-0.4-1.7
			c0-0.8,0.2-1.5,0.6-2.1s1-1.1,1.8-1.4c0.8-0.3,1.7-0.5,2.7-0.5c0.9,0,1.8,0.1,2.6,0.4c0.8,0.3,1.5,0.6,2,1l-1,2.3
			c-1.1-0.8-2.3-1.2-3.6-1.2c-0.6,0-1.1,0.1-1.5,0.3s-0.6,0.5-0.6,0.9c0,0.2,0.1,0.4,0.2,0.6c0.1,0.1,0.4,0.3,0.7,0.4
			s0.9,0.3,1.6,0.4c1.1,0.2,2,0.5,2.7,0.9c0.7,0.3,1.1,0.8,1.4,1.2c0.3,0.5,0.4,1,0.4,1.7c0,1.2-0.5,2.2-1.4,2.9s-2.3,1-4,1
			C279.4,700.9,278.5,700.8,277.6,700.5z M281.7,684.4h2.3l-2.4,2.8h-1.7l-2.4-2.8h2.3l1,1.4L281.7,684.4z"/>
		<path class="st4" d="M299.8,700.8h-3.9l-5-5.7v5.7h-3.3v-12.5h3.3v5.4l4.9-5.4h3.8l-5.5,6L299.8,700.8z"/>
		<path class="st4" d="M309.4,700.8l-1.1-2.6h-5.5l-1.1,2.6h-3.3l5.8-12.5h2.6l5.9,12.5H309.4z M303.8,695.7h3.4l-1.7-4L303.8,695.7
			z"/>
		<path class="st4" d="M328.6,695.4c0.4,0.5,0.6,1.2,0.6,1.9s-0.2,1.3-0.5,1.8s-0.9,0.9-1.5,1.2s-1.5,0.4-2.4,0.4h-6.2v-12.5h6.1
			c1.3,0,2.4,0.3,3.1,0.9c0.8,0.6,1.2,1.4,1.2,2.4c0,0.6-0.2,1.2-0.5,1.7s-0.8,0.8-1.4,1.1C327.6,694.5,328.2,694.9,328.6,695.4z
			 M321.7,693.1h2.3c0.6,0,1.1-0.1,1.3-0.3s0.4-0.5,0.4-0.9s-0.1-0.8-0.4-1s-0.7-0.3-1.3-0.3h-2.3V693.1z M325.7,698
			c0.3-0.2,0.4-0.5,0.4-1s-0.1-0.8-0.4-1s-0.7-0.3-1.4-0.3h-2.6v2.7h2.6C325,698.3,325.4,698.2,325.7,698z"/>
		<path class="st4" d="M342.1,700.8h-3.6l-2.2-4c-0.3-0.5-0.7-0.7-1.3-0.7h-1v4.7h-3.2v-12.5h6c1.5,0,2.7,0.3,3.4,1s1.1,1.6,1.1,2.9
			c0,0.9-0.3,1.8-0.8,2.4s-1.3,1.1-2.2,1.3c0.7,0.2,1.3,0.6,1.7,1.4L342.1,700.8z M337.8,693.3c0.3-0.2,0.5-0.6,0.5-1.1
			s-0.2-0.9-0.5-1.1c-0.3-0.2-0.8-0.3-1.6-0.3H334v2.9h2.3C337,693.6,337.5,693.5,337.8,693.3z"/>
		<path class="st4" d="M343.4,688.2h5.1c1.4,0,2.6,0.2,3.6,0.7s1.8,1.2,2.3,2.2c0.5,0.9,0.8,2.1,0.8,3.3c0,1.3-0.3,2.4-0.8,3.4
			c-0.5,0.9-1.3,1.7-2.3,2.2s-2.2,0.7-3.6,0.7h-5.1V688.2z M348.3,698.1c1.2,0,2.1-0.3,2.8-0.9c0.6-0.6,0.9-1.5,0.9-2.7
			s-0.3-2.1-0.9-2.7c-0.6-0.6-1.5-0.9-2.8-0.9h-1.6v7.3L348.3,698.1L348.3,698.1z"/>
		<path class="st4" d="M366.3,700.8l-1.1-2.6h-5.5l-1.1,2.6h-3.3l5.8-12.5h2.6l5.9,12.5H366.3z M360.7,695.7h3.4l-1.7-4L360.7,695.7
			z"/>
		<rect x="224.5" y="684.4" class="st5" width="151.2" height="21.7"/>
	</g>
	<g class="st3">
		<path class="st4" d="M234.1,377.6c-0.9-0.2-1.7-0.6-2.2-1l1-2.3c0.6,0.4,1.2,0.7,1.9,0.9c0.7,0.2,1.4,0.3,2.1,0.3
			c0.7,0,1.3-0.1,1.6-0.3c0.4-0.2,0.6-0.5,0.6-0.8s-0.2-0.6-0.5-0.8c-0.3-0.2-1-0.4-1.9-0.6c-1.2-0.2-2.1-0.5-2.8-0.9
			c-0.7-0.3-1.1-0.7-1.4-1.2s-0.4-1-0.4-1.7c0-0.8,0.2-1.5,0.6-2.1s1-1.1,1.8-1.4s1.7-0.5,2.7-0.5c0.9,0,1.8,0.1,2.6,0.4
			s1.5,0.6,2,1l-1,2.3c-1.1-0.8-2.3-1.2-3.6-1.2c-0.6,0-1.1,0.1-1.5,0.3s-0.6,0.5-0.6,0.9c0,0.2,0.1,0.4,0.2,0.6
			c0.1,0.1,0.4,0.3,0.7,0.4c0.4,0.1,0.9,0.3,1.6,0.4c1.1,0.2,2,0.5,2.7,0.9c0.7,0.3,1.1,0.8,1.4,1.2c0.3,0.5,0.4,1,0.4,1.7
			c0,1.2-0.5,2.2-1.4,2.9c-0.9,0.7-2.3,1-4,1C236,378,235,377.9,234.1,377.6z"/>
		<path class="st4" d="M246.8,377.2c-0.9-0.5-1.7-1.3-2.2-2.2c-0.5-1-0.8-2.1-0.8-3.4s0.3-2.4,0.8-3.4s1.2-1.7,2.2-2.2
			c0.9-0.5,2.1-0.8,3.3-0.8s2.4,0.3,3.3,0.8c0.9,0.5,1.7,1.3,2.2,2.2c0.5,1,0.8,2.1,0.8,3.4s-0.3,2.4-0.8,3.4
			c-0.5,1-1.2,1.7-2.2,2.2c-0.9,0.5-2,0.8-3.3,0.8C248.8,378,247.7,377.7,246.8,377.2z M252.3,374.5c0.5-0.7,0.8-1.6,0.8-2.9
			s-0.3-2.3-0.8-2.9c-0.5-0.7-1.3-1-2.2-1s-1.7,0.3-2.2,1s-0.8,1.6-0.8,2.9s0.3,2.3,0.8,2.9c0.5,0.7,1.3,1,2.2,1
			C251.1,375.5,251.8,375.2,252.3,374.5z"/>
		<path class="st4" d="M261,377.2c-1-0.5-1.7-1.3-2.2-2.3s-0.8-2.1-0.8-3.4s0.3-2.4,0.8-3.4s1.3-1.7,2.2-2.2c1-0.5,2.1-0.8,3.4-0.8
			c0.8,0,1.6,0.1,2.4,0.4c0.8,0.2,1.4,0.6,1.9,1l-1,2.3c-1-0.7-2.1-1.1-3.2-1.1c-1,0-1.8,0.3-2.3,1c-0.5,0.6-0.8,1.6-0.8,2.9
			s0.3,2.2,0.8,2.9s1.3,1,2.3,1c1.1,0,2.1-0.4,3.2-1.1l1,2.3c-0.5,0.4-1.1,0.7-1.9,1c-0.8,0.2-1.6,0.4-2.4,0.4
			C263.1,378,261.9,377.7,261,377.2z M265.3,361.5h2.3l-2.4,2.8h-1.7l-2.4-2.8h2.3l1,1.4L265.3,361.5z"/>
		<path class="st4" d="M279.7,377.8l-1.1-2.6h-5.5l-1.1,2.6h-3.3l5.8-12.5h2.6l5.9,12.5H279.7z M274.1,372.8h3.4l-1.7-4L274.1,372.8
			z"/>
		<path class="st4" d="M298,365.3h3.3l-5.7,12.5H293l-5.7-12.5h3.4l3.6,8.5L298,365.3z"/>
		<path class="st4" d="M310.3,377.8l-1.1-2.6h-5.5l-1.1,2.6h-3.3l5.8-12.5h2.6l5.9,12.5H310.3z M304.7,372.8h3.4l-1.7-4L304.7,372.8
			z"/>
		<path class="st4" d="M314.2,377.8v-12.5h3.3v9.9h5.3v2.6H314.2z"/>
		<path class="st4" d="M324.4,377.8v-12.5h3.3v9.9h5.3v2.6H324.4z"/>
		<path class="st4" d="M334.6,377.8v-12.5h8.9v2.5h-5.7v2.4h5.4v2.5h-5.4v2.6h5.7v2.5H334.6z"/>
		<path class="st4" d="M356.8,365.3l-5.3,6.9v5.6h-3.3v-5.6l-5.3-6.9h3.7l3.2,4.4l3.2-4.4H356.8z"/>
		<rect x="225.9" y="354.4" class="st5" width="136.6" height="30.8"/>
	</g>
	<g class="st3">
		<path class="st4" d="M804.7,122v6.3c-0.7,0.3-1.4,0.5-2.2,0.7s-1.7,0.2-2.5,0.2c-1.4,0-2.5-0.3-3.5-0.8s-1.8-1.3-2.3-2.2
			c-0.5-1-0.8-2.1-0.8-3.4s0.3-2.4,0.8-3.4s1.3-1.7,2.3-2.2s2.1-0.8,3.4-0.8c0.9,0,1.8,0.1,2.6,0.4s1.4,0.6,1.9,1l-1,2.3
			c-0.6-0.4-1.1-0.7-1.7-0.8s-1.1-0.2-1.7-0.2c-1.1,0-2,0.3-2.5,0.9s-0.8,1.6-0.8,2.9s0.3,2.3,0.9,3s1.5,1,2.6,1
			c0.6,0,1.1-0.1,1.7-0.2v-2.3h-2.2V122H804.7z"/>
		<path class="st4" d="M809.5,128.4c-0.9-0.5-1.7-1.3-2.2-2.2c-0.5-1-0.8-2.1-0.8-3.4s0.3-2.4,0.8-3.4s1.2-1.7,2.2-2.2
			c0.9-0.5,2.1-0.8,3.3-0.8s2.4,0.3,3.3,0.8c0.9,0.5,1.7,1.3,2.2,2.2c0.5,1,0.8,2.1,0.8,3.4s-0.3,2.4-0.8,3.4s-1.2,1.7-2.2,2.2
			c-0.9,0.5-2,0.8-3.3,0.8S810.4,129,809.5,128.4z M815,125.7c0.5-0.7,0.8-1.6,0.8-2.9s-0.3-2.3-0.8-2.9c-0.5-0.7-1.3-1-2.2-1
			s-1.7,0.3-2.2,1s-0.8,1.6-0.8,2.9s0.3,2.3,0.8,2.9c0.5,0.7,1.3,1,2.2,1S814.5,126.4,815,125.7z"/>
		<path class="st4" d="M832.2,129.1h-3.6l-2.2-4c-0.3-0.5-0.7-0.7-1.3-0.7h-1v4.7H821v-12.5h6c1.5,0,2.7,0.3,3.4,1s1.1,1.6,1.1,2.9
			c0,0.9-0.3,1.8-0.8,2.4c-0.5,0.7-1.3,1.1-2.2,1.3c0.7,0.2,1.3,0.6,1.7,1.4L832.2,129.1z M828,121.6c0.3-0.2,0.5-0.6,0.5-1.1
			s-0.2-0.9-0.5-1.1s-0.8-0.3-1.6-0.3h-2.3v2.9h2.3C827.2,121.9,827.7,121.8,828,121.6z"/>
		<path class="st4" d="M832.6,126.7l1.5-0.1c0.4,0,0.8-0.1,0.9-0.3c0.2-0.2,0.3-0.5,0.3-0.9v-8.8h3.3v8.7c0,1.2-0.3,2.2-1,2.8
			s-1.6,1-3,1.1l-1.8,0.1L832.6,126.7z"/>
		<path class="st4" d="M840.8,129.1v-12.5h8.9v2.5H844v2.4h5.4v2.5H844v2.6h5.7v2.5H840.8z"/>
		<rect x="788.5" y="109.8" class="st5" width="64.9" height="25.1"/>
	</g>
</g>
</svg>
