<?xml version="1.0" encoding="UTF-8"?>
<svg width="24px" height="24px" viewBox="0 0 24 24" version="1.1" xmlns="http://www.w3.org/2000/svg" xmlns:xlink="http://www.w3.org/1999/xlink">
    <!-- Generator: Sketch 51 (57462) - http://www.bohemiancoding.com/sketch -->
    <title>MenuInverted</title>
    <desc>Created with Sketch.</desc>
    <defs></defs>
    <g id="Page-1" stroke="none" stroke-width="1" fill="none" fill-rule="evenodd">
        <g id="MenuInverted" fill="#071E22">
            <path d="M8.61538462,0 L1.84615385,0 C0.826551231,0 0,0.826551231 0,1.84615385 L0,8.61538462 C0,9.63498723 0.826551231,10.4615385 1.84615385,10.4615385 L8.61538462,10.4615385 C9.63498723,10.4615385 10.4615385,9.63498723 10.4615385,8.61538462 L10.4615385,1.84615385 C10.4615385,0.826551231 9.63498723,0 8.61538462,0 Z M8.61538462,8.61538462 L1.84615385,8.61538462 L1.84615385,1.84615385 L8.61538462,1.84615385 L8.61538462,8.61538462 Z" id="Shape"></path>
            <path d="M22.1538462,0 L15.3846154,0 C14.3650128,0 13.5384615,0.826551231 13.5384615,1.84615385 L13.5384615,8.61538462 C13.5384615,9.63498723 14.3650128,10.4615385 15.3846154,10.4615385 L22.1538462,10.4615385 C23.1734488,10.4615385 24,9.63498723 24,8.61538462 L24,1.84615385 C24,0.826551231 23.1734488,0 22.1538462,0 Z M22.1538462,8.61538462 L15.3846154,8.61538462 L15.3846154,1.84615385 L22.1538462,1.84615385 L22.1538462,8.61538462 Z" id="Shape"></path>
            <path d="M8.61538462,13.5384615 L1.84615385,13.5384615 C0.826551231,13.5384615 0,14.3650128 0,15.3846154 L0,22.1538462 C0,23.1734488 0.826551231,24 1.84615385,24 L8.61538462,24 C9.63498723,24 10.4615385,23.1734488 10.4615385,22.1538462 L10.4615385,15.3846154 C10.4615385,14.3650128 9.63498723,13.5384615 8.61538462,13.5384615 Z M8.61538462,22.1538462 L1.84615385,22.1538462 L1.84615385,15.3846154 L8.61538462,15.3846154 L8.61538462,22.1538462 Z" id="Shape"></path>
            <path d="M22.1538462,13.5384615 L15.3846154,13.5384615 C14.3650128,13.5384615 13.5384615,14.3650128 13.5384615,15.3846154 L13.5384615,22.1538462 C13.5384615,23.1734488 14.3650128,24 15.3846154,24 L22.1538462,24 C23.1734488,24 24,23.1734488 24,22.1538462 L24,15.3846154 C24,14.3650128 23.1734488,13.5384615 22.1538462,13.5384615 Z M22.1538462,22.1538462 L15.3846154,22.1538462 L15.3846154,15.3846154 L22.1538462,15.3846154 L22.1538462,22.1538462 Z" id="Shape"></path>
        </g>
    </g>
</svg>