<?xml version="1.0" encoding="utf-8"?>
<!-- Generator: Adobe Illustrator 22.1.0, SVG Export Plug-In . SVG Version: 6.00 Build 0)  -->
<svg version="1.1" id="Layer_1" xmlns="http://www.w3.org/2000/svg" xmlns:xlink="http://www.w3.org/1999/xlink" x="0px" y="0px"
	 viewBox="0 0 512 512" style="enable-background:new 0 0 512 512;" xml:space="preserve">
<style type="text/css">
	.st0{fill:#071E22;}
	.st1{fill:#26C485;}
	.st2{fill:#5ED3A5;}
	.st3{fill:#679289;}
	.st4{fill:#82A69E;}
</style>
<path class="st0" d="M120.1,404l149.3-149.3c2.1-2.1,3.3-4.9,3.3-7.9V167c0-6.1,5-11.1,11.1-11.1c6.1,0,11.1,5,11.1,11.1l0,79.8
	c0,8.9-3.5,17.3-9.8,23.6L135.9,419.7c-2.2,2.2-5,3.3-7.9,3.3c-2.8,0-5.7-1.1-7.9-3.3C115.8,415.4,115.8,408.3,120.1,404z"/>
<path class="st1" d="M171.4,368.4L171.4,368.4c13,13,13,34.2,0,47.2l-86.6,86.6c-13,13-34.2,13-47.2,0l0,0c-13-13-13-34.2,0-47.2
	l86.6-86.6C137.2,355.4,158.4,355.4,171.4,368.4z"/>
<path class="st2" d="M37.6,455l86.6-86.6c13-13,34.2-13,47.2,0l0,0c0.4,0.4,0.9,0.9,1.3,1.4c-0.4,0.5-0.8,0.9-1.3,1.4l-86.6,86.6
	c-13,13-34.2,13-47.2,0l0,0c-0.4-0.4-0.9-0.9-1.3-1.4C36.7,455.9,37.2,455.4,37.6,455z"/>
<path class="st3" d="M317.2,200.3h-66.8h-66.8c-18.4,0-33.4-14.9-33.4-33.4v-89c0-18.4,14.9-33.4,33.4-33.4h66.8h66.8H384
	c18.4,0,33.4,14.9,33.4,33.4v89c0,18.4-14.9,33.4-33.4,33.4L317.2,200.3L317.2,200.3z"/>
<path class="st4" d="M178.1,155.8V89c0-12.3,10-22.3,22.3-22.3h167c12.3,0,22.3,10,22.3,22.3v66.8c0,12.3-10,22.3-22.3,22.3h-167
	C188.1,178.1,178.1,168.1,178.1,155.8z"/>
<path class="st1" d="M272.7,22.3H295c12.3,0,22.3,10,22.3,22.3v155.8c0,12.3-10,22.3-22.3,22.3h-22.3c-12.3,0-22.3-10-22.3-22.3
	V44.5C250.4,32.2,260.4,22.3,272.7,22.3z"/>
<path class="st2" d="M300.5,189.2c-15.4,0-27.8-12.5-27.8-27.8V39c0-6.3,2.1-12,5.6-16.7H295c12.3,0,22.3,10,22.3,22.3v139.1
	C312.6,187.1,306.8,189.2,300.5,189.2z"/>
<path class="st0" d="M417.4,0c6.1,0,11.1,5,11.1,11.1v11.1c0,6.1-5,11.1-11.1,11.1c-6.1,0-11.1-5-11.1-11.1V11.1
	C406.3,5,411.2,0,417.4,0z M442.9,25.5c-4.3,4.3-4.3,11.4,0,15.7c2.2,2.2,5,3.3,7.9,3.3c2.8,0,5.7-1.1,7.9-3.3L480.9,19
	c4.3-4.3,4.3-11.4,0-15.7c-4.3-4.3-11.4-4.3-15.7,0L442.9,25.5z M450.8,66.8c0,6.1,5,11.1,11.1,11.1H473c6.1,0,11.1-5,11.1-11.1
	c0-6.1-5-11.1-11.1-11.1h-11.1C455.8,55.7,450.8,60.6,450.8,66.8z M139.1,11.1v11.1c0,6.1,5,11.1,11.1,11.1s11.1-5,11.1-11.1V11.1
	c0-6.1-5-11.1-11.1-11.1S139.1,5,139.1,11.1z M116.9,44.5c2.8,0,5.7-1.1,7.9-3.3c4.3-4.3,4.3-11.4,0-15.7L102.5,3.3
	c-4.3-4.3-11.4-4.3-15.7,0c-4.3,4.3-4.3,11.4,0,15.7L109,41.3C111.2,43.4,114,44.5,116.9,44.5z M83.5,66.8c0,6.1,5,11.1,11.1,11.1
	h11.1c6.1,0,11.1-5,11.1-11.1c0-6.1-5-11.1-11.1-11.1H94.6C88.5,55.7,83.5,60.6,83.5,66.8z"/>
</svg>
