<?xml version="1.0" encoding="UTF-8"?>
<svg width="512px" height="476px" viewBox="0 0 512 476" version="1.1" xmlns="http://www.w3.org/2000/svg" xmlns:xlink="http://www.w3.org/1999/xlink">
    <!-- Generator: Sketch 52.3 (67297) - http://www.bohemiancoding.com/sketch -->
    <title>ski</title>
    <desc>Created with Sketch.</desc>
    <g id="Page-1" stroke="none" stroke-width="1" fill="none" fill-rule="evenodd">
        <g id="ski">
            <polygon id="Path" fill="#0481BF" points="275.052 103.091 334.653 103.091 327.193 84.482 273.25 84.482 273.25 100.954"></polygon>
            <path d="M374.784,110.767 L342.73,110.767 C339.98,110.767 336.893,108.678 335.87,106.126 L334.653,103.091 L277.327,103.091 C277.498,104.254 277.72,105.407 277.971,106.553 L298.685,131.124 C302.433,131.726 306.161,132.836 309.772,134.516 C315.974,137.402 321.127,141.614 325.071,146.649 C345.311,147.76 365.133,136.733 374.223,117.281 C375.297,114.983 376.178,112.644 376.885,110.285 C376.244,110.586 375.536,110.767 374.784,110.767 Z" id="Path" fill="#FFD5B3"></path>
            <g id="Group" transform="translate(197.000000, 264.000000)" fill="#3F5C46">
                <path d="M151.313,32.635 L95.773,5.959 L86.899,24.948 L123.261,41.866 C130.741,45.346 136.028,54.892 135.01,63.08 L123.617,154.708 C123.337,156.961 122.546,159.093 121.394,161.012 L142.196,161.012 C147.128,158.467 150.873,153.574 151.555,147.984 L163.017,54.019 C164.017,45.829 158.75,36.206 151.313,32.635 Z" id="Path"></path>
                <path d="M123.26,41.866 L86.898,24.948 L86.897,24.949 L63.965,14.279 L39.12,14.279 C39.121,14.279 39.121,14.278 39.121,14.278 C37.711,15.133 36.061,15.635 34.289,15.635 L15.64,15.635 C10.491,15.635 6.315,11.47 6.315,6.331 L6.315,0.392 C5.653,1.247 5.068,2.179 4.593,3.197 L1.723,9.338 C-1.77,16.812 1.493,25.775 8.972,29.255 L81.948,63.209 C89.428,66.689 94.715,76.235 93.697,84.423 L84.958,154.708 C84.678,156.961 84.939,159.093 85.613,161.012 L121.393,161.012 C122.544,159.093 123.335,156.961 123.616,154.708 L135.009,63.08 C136.027,54.893 130.74,45.347 123.26,41.866 Z" id="Path"></path>
            </g>
            <path d="M315.974,423.051 C307.724,423.051 301.807,416.353 302.825,408.165 L311.564,337.88 C312.582,329.692 307.295,320.147 299.815,316.666 L226.839,282.712 C225.173,281.937 223.73,280.878 222.51,279.636 L212.64,279.636 C207.491,279.636 203.315,275.471 203.315,270.332 L203.315,264.396 C202.654,265.25 202.068,266.18 201.593,267.198 L198.723,273.339 C195.23,280.813 198.493,289.776 205.972,293.256 L278.948,327.21 C286.428,330.69 291.715,340.236 290.697,348.424 L281.958,418.709 C281.678,420.962 281.939,423.094 282.613,425.013 L318.4,425.013 C318.779,424.381 319.124,423.729 319.418,423.052 L315.974,423.052 L315.974,423.051 Z" id="Path" fill="#2F003A" opacity="0.1"></path>
            <path d="M368.956,425.012 L340.982,425.012 C343.732,425.012 345.982,427.262 345.982,430.012 L345.982,443.62 L373.956,443.62 L373.956,430.012 C373.956,427.262 371.706,425.012 368.956,425.012 Z" id="Path" fill="#628E6D"></path>
            <path d="M298.685,131.124 C301.42,131.563 304.143,132.28 306.818,133.288 L306.818,103.091 L277.326,103.091 C277.497,104.254 277.719,105.407 277.97,106.553 L298.685,131.124 Z" id="Path" fill="#628E6D"></path>
            <path d="M216.918,179.398 C218.921,167.273 229.714,157.85 242.023,157.478 L252.897,157.149 L254.01,154.768 C262.12,137.414 280.634,128.225 298.686,131.124 L261.145,86.595 C260.34,85.641 259.184,85.048 257.937,84.951 C257.817,84.942 257.697,84.937 257.577,84.937 C256.455,84.937 255.366,85.341 254.514,86.082 C235.325,102.766 215.616,120.37 203.991,136.084 C199.119,142.67 184.294,162.71 198.695,179.788 C202.934,184.817 208.586,187.552 215.506,187.945 L216.918,179.398 Z" id="Path" fill="#628E6D"></path>
            <path d="M215.974,185.113 C207.436,169.226 220.065,152.131 224.492,146.146 C235.44,131.347 253.558,114.871 271.661,99.067 L261.146,86.594 C260.341,85.64 259.185,85.047 257.938,84.95 C257.818,84.941 257.698,84.936 257.578,84.936 C256.456,84.936 255.367,85.34 254.515,86.081 C235.326,102.765 215.617,120.369 203.992,136.083 C199.12,142.669 184.295,162.709 198.696,179.787 C202.935,184.816 208.587,187.551 215.507,187.944 L215.974,185.113 Z" id="Path" fill="#2F003A" opacity="0.1"></path>
            <path d="M309.772,134.516 C288.769,124.744 263.803,133.811 254.009,154.768 L252.896,157.149 L294.245,155.899 C302.481,155.65 309.36,162.11 309.609,170.328 C309.856,178.548 303.385,185.409 295.148,185.658 L245.878,187.148 L239.458,229.515 C241.399,230.391 242.657,232.44 242.386,234.659 L240.442,250.592 C240.237,252.268 239.21,253.649 237.818,254.392 L237.819,254.392 C239.448,255.986 240.482,258.173 240.593,260.603 L267.319,260.603 C270.069,260.603 272.319,262.853 272.319,265.603 L272.319,273.281 C272.319,276.031 270.069,278.281 267.319,278.281 L260.967,278.281 L283.899,288.951 L330.069,190.157 C339.861,169.199 330.775,144.287 309.772,134.516 Z" id="Path" fill="#628E6D"></path>
            <path d="M345.982,443.62 L345.982,430.012 C345.982,427.262 343.732,425.012 340.982,425.012 L279.402,425.012 C276.652,425.012 274.402,427.262 274.402,430.012 L274.402,443.62 L345.982,443.62 Z" id="Path" fill="#628E6D"></path>
            <path d="M267.318,260.602 L240.592,260.602 C240.598,260.745 240.614,260.884 240.614,261.028 L240.614,270.333 C240.614,273.705 238.81,276.648 236.12,278.28 L267.318,278.28 C270.068,278.28 272.318,276.03 272.318,273.28 L272.318,265.602 C272.318,262.852 270.068,260.602 267.318,260.602 Z" id="Path" fill="#FFFFFF"></path>
            <path d="M53.19,289.096 C53.19,291.846 50.94,294.096 48.19,294.096 L39.541,294.096 C36.791,294.096 34.541,291.846 34.541,289.096 L34.541,249.785 C34.541,247.035 36.791,244.785 39.541,244.785 L48.19,244.785 C50.94,244.785 53.19,247.035 53.19,249.785 C53.19,249.785 53.19,289.096 53.19,289.096 Z" id="Path" fill="#B3CCE2"></path>
            <path d="M237.819,254.391 C236.944,254.859 235.927,255.08 234.873,254.952 L210.473,251.987 C206.371,252.964 203.316,256.635 203.316,261.028 L203.316,270.333 C203.316,275.472 207.491,279.637 212.641,279.637 L231.29,279.637 C236.44,279.637 240.614,275.472 240.614,270.333 L240.614,261.028 C240.614,258.427 239.542,256.078 237.819,254.391 Z" id="Path" fill="#F5F5F5"></path>
            <path d="M294.245,155.898 L242.023,157.477 C229.714,157.849 218.921,167.272 216.918,179.397 L209.16,226.355 C209.977,225.974 210.899,225.795 211.855,225.912 L238.028,229.092 C238.539,229.155 239.01,229.314 239.458,229.515 L245.878,187.148 L295.148,185.658 C303.385,185.409 309.856,178.548 309.609,170.328 C309.36,162.109 302.481,155.649 294.245,155.898 Z" id="Path" fill="#F5F5F5"></path>
            <path d="M208.7,251.772 C205.97,251.441 204.009,248.936 204.342,246.207 L206.286,230.272 C206.619,227.543 209.125,225.581 211.855,225.913 L238.028,229.093 C240.758,229.425 242.719,231.93 242.385,234.659 L240.441,250.592 C240.108,253.322 237.602,255.283 234.872,254.952 L208.7,251.772 Z" id="Path" fill="#FFFFFF"></path>
            <path d="M208.7,251.772 C205.97,251.441 204.009,248.936 204.342,246.207 L206.286,230.272 C206.619,227.543 209.125,225.581 211.855,225.913 L238.028,229.093 C240.758,229.425 242.719,231.93 242.385,234.659 L240.441,250.592 C240.108,253.322 237.602,255.283 234.872,254.952 L208.7,251.772 Z" id="Path" fill="#628E6D"></path>
            <path d="M327.193,84.482 L335.87,106.126 C336.893,108.678 339.98,110.767 342.73,110.767 L374.784,110.767 C377.534,110.767 379.784,108.517 379.784,105.767 L379.784,84.483 L327.193,84.482 Z" id="Path" fill="#A2E8F9"></path>
            <path d="M376.753,57.501 L376.753,50.988 C376.753,27.351 357.549,8.189 333.86,8.189 L325.468,8.189 C301.779,8.189 282.575,27.351 282.575,50.988 L282.575,57.501 L376.753,57.501 Z" id="Path" fill="#628E6D"></path>
            <path d="M303,57.501 L303,50.988 C303,29.389 319.037,11.537 339.877,8.617 C337.91,8.342 335.903,8.189 333.86,8.189 L325.468,8.189 C301.779,8.189 282.575,27.351 282.575,50.988 L282.575,57.501 L303,57.501 Z" id="Path" fill="#2F003A" opacity="0.1"></path>
            <path d="M386.078,79.482 C386.078,82.232 383.828,84.482 381.078,84.482 L278.25,84.482 C275.5,84.482 273.25,82.232 273.25,79.482 L273.25,62.501 C273.25,59.751 275.5,57.501 278.25,57.501 L381.077,57.501 C383.827,57.501 386.077,59.751 386.077,62.501 L386.077,79.482 L386.078,79.482 Z" id="Path" fill="#FFFFFF"></path>
            <path d="M386.078,79.482 C386.078,82.232 383.828,84.482 381.078,84.482 L278.25,84.482 C275.5,84.482 273.25,82.232 273.25,79.482 L273.25,62.501 C273.25,59.751 275.5,57.501 278.25,57.501 L381.077,57.501 C383.827,57.501 386.077,59.751 386.077,62.501 L386.077,79.482 L386.078,79.482 Z" id="Path" fill="#F5F5F5"></path>
            <g id="Group" opacity="0.1" transform="translate(273.000000, 57.000000)" fill="#000000">
                <path d="M32,22.482 L32,5.501 C32,2.751 34.25,0.501 37,0.501 L5.25,0.501 C2.5,0.501 0.25,2.751 0.25,5.501 L0.25,22.482 C0.25,25.232 2.5,27.482 5.25,27.482 L37,27.482 C34.25,27.482 32,25.232 32,22.482 Z" id="Path"></path>
            </g>
            <path d="M151.099,467.81 C149.554,467.81 148.301,466.561 148.301,465.019 L148.301,446.411 C148.301,444.869 149.554,443.62 151.099,443.62 L469.067,443.62 C475.237,443.62 480.256,438.611 480.256,432.455 C480.256,426.299 475.236,421.29 469.067,421.29 L459.743,421.29 C458.198,421.29 456.946,420.041 456.946,418.499 L456.946,399.891 C456.946,398.349 458.199,397.1 459.743,397.1 L469.067,397.1 C488.605,397.1 504.501,412.96 504.501,432.455 C504.501,451.95 488.605,467.81 469.067,467.81 L151.099,467.81 Z" id="Path" fill="#F5F5F5"></path>
            <g id="Group" opacity="0.1" transform="translate(148.000000, 443.000000)" fill="#000000">
                <path d="M42,22.02 L42,3.412 C42,1.87 43.253,0.621 44.798,0.621 L3.099,0.621 C1.554,0.621 0.301,1.87 0.301,3.412 L0.301,22.02 C0.301,23.562 1.554,24.811 3.099,24.811 L44.798,24.811 C43.253,24.81 42,23.561 42,22.02 Z" id="Path"></path>
            </g>
            <path d="M231.076,404.19 C231.076,400.047 227.718,396.69 223.576,396.69 L67.854,396.69 C63.712,396.69 60.354,400.047 60.354,404.19 C60.354,408.332 63.712,411.69 67.854,411.69 L223.576,411.69 C227.718,411.69 231.076,408.332 231.076,404.19 Z" id="Path" fill="#071E22"></path>
            <path d="M88.343,358.69 C84.201,358.69 80.843,362.047 80.843,366.19 C80.843,370.332 84.201,373.69 88.343,373.69 L125,373.69 C129.142,373.69 132.5,370.332 132.5,366.19 C132.5,362.047 129.142,358.69 125,358.69 L88.343,358.69 Z" id="Path" fill="#071E22"></path>
            <path d="M153.5,366.19 C153.5,370.332 156.858,373.69 161,373.69 L244.066,373.69 C248.208,373.69 251.566,370.332 251.566,366.19 C251.566,362.047 248.208,358.69 244.066,358.69 L161,358.69 C156.858,358.69 153.5,362.047 153.5,366.19 Z" id="Path" fill="#071E22"></path>
            <path d="M219.478,337.69 C223.62,337.69 226.978,334.332 226.978,330.19 C226.978,326.047 223.62,322.69 219.478,322.69 L63.755,322.69 C59.613,322.69 56.255,326.047 56.255,330.19 C56.255,334.332 59.613,337.69 63.755,337.69 L219.478,337.69 Z" id="Path" fill="#071E22"></path>
            <path d="M469.066,389.6 L459.742,389.6 C454.064,389.6 449.445,394.216 449.445,399.891 L449.445,418.499 C449.445,424.174 454.064,428.79 459.742,428.79 L469.066,428.79 C471.1,428.79 472.755,430.435 472.755,432.455 C472.755,434.475 471.1,436.12 469.066,436.12 L381.456,436.12 L381.456,430.012 C381.456,423.119 375.849,417.512 368.956,417.512 L354.947,417.512 C355.445,416.028 355.806,414.484 356.001,412.892 L367.463,318.927 C368.847,307.582 361.861,294.821 351.56,289.874 L302.709,266.411 L309.362,252.176 C311.116,248.423 309.495,243.959 305.743,242.205 C301.99,240.451 297.526,242.071 295.773,245.824 L280.274,278.99 L278.764,278.287 C279.438,276.753 279.819,275.06 279.819,273.279 L279.819,265.601 C279.819,258.708 274.211,253.101 267.319,253.101 L247.572,253.101 C247.706,252.579 247.82,252.047 247.887,251.498 L249.831,235.566 C250.22,232.38 249.378,229.235 247.477,226.656 L252.356,194.454 L295.374,193.152 C307.727,192.779 317.476,182.438 317.105,170.098 C316.735,157.925 306.896,148.39 294.705,148.39 C294.476,148.39 294.248,148.393 294.018,148.401 L266.664,149.228 C276.557,138.488 292.666,134.826 306.608,141.314 C314.957,145.199 321.287,152.094 324.43,160.732 C327.566,169.349 327.155,178.671 323.272,186.978 L309.791,215.823 C308.037,219.576 309.657,224.04 313.41,225.794 C317.161,227.545 321.626,225.927 323.38,222.175 L336.861,193.33 C342.443,181.387 343.034,167.988 338.525,155.602 C338.254,154.859 337.965,154.125 337.663,153.401 C356.416,150.203 372.827,137.979 381.018,120.454 C381.866,118.64 382.604,116.794 383.257,114.929 C385.726,112.644 387.283,109.387 387.283,105.766 L387.283,90.318 C391.037,88.159 393.577,84.115 393.577,79.482 L393.577,62.501 C393.577,56.702 389.602,51.827 384.239,50.422 C383.932,22.947 361.456,0.69 333.86,0.69 L325.468,0.69 C297.872,0.69 275.396,22.948 275.09,50.422 C269.726,51.827 265.751,56.702 265.751,62.501 L265.751,79.482 C265.751,79.881 265.774,80.274 265.811,80.664 C263.815,78.833 261.228,77.684 258.485,77.472 C255.237,77.231 252.037,78.299 249.593,80.422 C230.09,97.378 210.04,115.298 197.961,131.625 C182.554,152.454 180.872,170.285 192.961,184.622 C196.733,189.098 201.462,192.235 206.912,193.953 L202.242,222.223 C200.421,224.118 199.182,226.588 198.843,229.364 L196.899,245.299 C196.594,247.801 197.043,250.279 198.169,252.479 C196.676,254.984 195.817,257.907 195.817,261.029 L195.817,261.942 L60.69,261.942 L60.69,249.786 C60.69,242.893 55.083,237.286 48.19,237.286 L39.541,237.286 C32.648,237.286 27.041,242.893 27.041,249.786 L27.041,261.942 L7.5,261.942 C3.358,261.942 0,265.3 0,269.442 C0,273.585 3.358,276.942 7.5,276.942 L27.041,276.942 L27.041,289.097 C27.041,295.99 32.648,301.597 39.541,301.597 L48.19,301.597 C55.083,301.597 60.69,295.99 60.69,289.097 L60.69,276.94 L189.995,276.94 C189.569,280.414 189.952,283.965 191.186,287.358 C193.245,293.016 197.373,297.525 202.809,300.054 L275.785,334.008 C280.311,336.113 283.871,342.543 283.255,347.496 L274.516,417.782 C274.484,418.036 274.465,418.289 274.443,418.542 C270.012,420.466 266.902,424.88 266.902,430.011 L266.902,436.119 L151.099,436.119 C145.421,436.119 140.801,440.735 140.801,446.41 L140.801,465.018 C140.801,470.693 145.421,475.309 151.099,475.309 L390,475.309 C394.142,475.309 397.5,471.952 397.5,467.809 C397.5,463.667 394.142,460.309 390,460.309 L155.801,460.309 L155.801,451.119 L469.067,451.119 C479.373,451.119 487.756,442.746 487.756,432.454 C487.756,422.162 479.372,413.789 469.067,413.789 L464.445,413.789 L464.445,404.599 L469.067,404.599 C484.47,404.599 497.001,417.095 497.001,432.454 C497.001,447.813 484.47,460.309 469.067,460.309 L424,460.309 C419.858,460.309 416.5,463.667 416.5,467.809 C416.5,471.952 419.858,475.309 424,475.309 L469.066,475.309 C492.74,475.309 512,456.084 512,432.454 C512,408.824 492.74,389.6 469.066,389.6 Z M45.69,286.596 L42.041,286.596 L42.041,252.285 L45.69,252.285 L45.69,286.596 Z M366.456,436.12 L353.482,436.12 L353.482,432.512 L366.456,432.512 L366.456,436.12 Z M345.066,303.396 C349.605,305.576 353.183,312.113 352.573,317.111 L341.111,411.076 C340.802,413.611 339.227,415.964 337.102,417.512 L328.324,417.512 L339.453,328.006 C340.869,316.619 333.829,303.907 323.425,299.067 L293.875,285.318 L296.359,280.002 L345.066,303.396 Z M234.638,236.235 L233.299,247.205 L212.09,244.628 L213.429,233.658 L234.638,236.235 Z M210.816,261.027 C210.816,260.479 211.07,259.993 211.462,259.662 L233.114,262.293 L233.114,270.332 C233.114,271.326 232.296,272.136 231.29,272.136 L212.641,272.136 C211.635,272.136 210.816,271.326 210.816,270.332 L210.816,261.027 Z M264.818,270.779 L248.092,270.779 C248.096,270.629 248.115,270.483 248.115,270.332 L248.115,268.102 L264.819,268.102 L264.819,270.779 L264.818,270.779 Z M294.472,163.395 L294.706,163.392 C298.738,163.392 301.991,166.538 302.113,170.553 C302.236,174.624 299.01,178.037 294.922,178.161 L245.652,179.651 C242.031,179.76 239.006,182.442 238.463,186.023 L233.171,220.946 L217.961,219.098 L224.318,180.619 C225.747,171.965 233.456,165.239 242.25,164.973 L294.472,163.395 Z M280.75,95.591 L280.75,91.983 L322.119,91.983 L323.565,95.591 L280.75,95.591 Z M378.578,76.982 L280.75,76.982 L280.75,65.001 L378.577,65.001 L378.577,76.982 L378.578,76.982 Z M338.28,91.982 L372.283,91.982 L372.283,103.266 L342.98,103.266 C342.9,103.225 342.805,103.161 342.737,103.102 L338.28,91.982 Z M299.319,110.591 L299.319,120.239 L291.184,110.591 L299.319,110.591 Z M328.643,139.225 C324.624,134.815 319.79,131.152 314.319,128.401 L314.319,110.591 L329.73,110.591 C332.327,115.123 337.515,118.267 342.73,118.267 L365.198,118.267 C357.492,130.923 343.653,138.956 328.643,139.225 Z M325.468,15.689 L333.86,15.689 C353.044,15.689 368.7,30.993 369.228,50.001 L290.1,50.001 C290.628,30.993 306.285,15.689 325.468,15.689 Z M204.428,174.953 C199.886,169.567 195.525,160.14 210.02,140.545 C220.769,126.016 239.091,109.471 257.265,93.63 L282.855,123.984 C268.374,126.737 255.314,135.875 248.112,149.791 L241.795,149.982 C225.969,150.46 212.093,162.581 209.517,178.175 L209.407,178.841 C207.518,177.932 205.858,176.649 204.428,174.953 Z M282.113,320.409 L210.165,286.932 C210.975,287.052 211.797,287.135 212.641,287.135 L231.29,287.135 C233.637,287.135 235.872,286.65 237.903,285.779 L259.307,285.779 L317.096,312.666 C321.622,314.773 325.182,321.201 324.566,326.154 L313.207,417.511 L289.665,417.511 L298.141,349.348 C299.557,337.962 292.517,325.25 282.113,320.409 Z M281.902,432.512 L338.482,432.512 L338.482,436.12 L281.902,436.12 L281.902,432.512 Z" id="Shape" fill="#071E22" fill-rule="nonzero"></path>
        </g>
    </g>
</svg>