<svg id="Layer_1" data-name="Layer 1" xmlns="http://www.w3.org/2000/svg" viewBox="0 0 338.18 221.09"><defs><style>.cls-1{fill:#648f6e;}.cls-2{fill:#0a1e21;}.cls-3{fill:#091e22;}</style></defs><title>Untitled-7</title><path class="cls-1" d="M558,494.65h-2.74V470H558a2.74,2.74,0,0,1,2.73,2.74v19.16A2.74,2.74,0,0,1,558,494.65Z" transform="translate(-504.6 -326.93)"/><path class="cls-2" d="M574.4,474.12a4.1,4.1,0,0,0-3.85,2.73h-3a4.11,4.11,0,0,0-4.11-4.1h-1.37a4.12,4.12,0,0,0-2.73-3.86v-5.72h-8.22v5.72a4.11,4.11,0,0,0-2.73,3.86v12.51a4.15,4.15,0,0,0-1.82,1.06l-9.87,9.86a4.09,4.09,0,0,1-2.9,1.2h-2.9a11.69,11.69,0,0,0-5.09-5.44,15,15,0,1,0-11.55.33,11.6,11.6,0,0,0-5.56,9.9v18.48h1.37V548h24.63V532.5a15,15,0,0,0-2-7.47l-2.5-4.38H532V507h3.45a9.52,9.52,0,0,0,6.77-2.8l8.56-8.57.38.16v8.48H548.4v8.21h2.73v9.22l-11.86,21.09a3.54,3.54,0,0,0,3.08,5.27H543a3.53,3.53,0,0,0,3.09-1.82l5-9.05v6.77a4.11,4.11,0,0,0,8.22,0v-6.77l5,9.05a3.54,3.54,0,0,0,3.09,1.82h.66a3.54,3.54,0,0,0,3.09-5.27l-11.86-21.09v-9.22h2.73v-8.21h-2.73v-8.47a4.1,4.1,0,0,0,2.73-3.85h1.37a4.12,4.12,0,0,0,4.11-4.11h3a4.1,4.1,0,0,0,8-1.37v-8.21A4.11,4.11,0,0,0,574.4,474.12Zm-20.53-8.21h2.74v2.73h-2.74Zm-1.37,5.47h1.37v18a4.27,4.27,0,0,0-2.74-4V472.75A1.37,1.37,0,0,1,552.5,471.38Zm.49,21.9a4.25,4.25,0,0,0,.88-2.57v2.57Zm-34,11a2.06,2.06,0,0,1,0-4.11h6.16v4.11Zm-11.63-26a12.32,12.32,0,1,1,12.32,12.32A12.33,12.33,0,0,1,507.34,478.22Zm5.47,67.06V520.65h2L520,529a6.83,6.83,0,0,1,1,3.62v12.7Zm17.54-18.9A12.39,12.39,0,0,1,532,532.5v12.78h-8.21v-12.7a9.57,9.57,0,0,0-1.45-5.07L518,520.65h9.05Zm-1.11-8.47h-17.8V502.17a8.88,8.88,0,0,1,16.37-4.79H519a4.79,4.79,0,0,0,0,9.58h10.27Zm11-15.69a6.8,6.8,0,0,1-4.83,2h-7.55v-4.11h5.94a6.8,6.8,0,0,0,4.84-2l9.86-9.87a1.53,1.53,0,0,1,2.62,1.09v1.37a1.51,1.51,0,0,1-.45,1.08Zm16.36,26.64h-2.74v-5.47h2.74Zm-12.9,16a.79.79,0,0,1-.7.41h-.66a.79.79,0,0,1-.69-1.19l9.47-16.85v4.27Zm11.53.41a1.37,1.37,0,0,1-1.37-1.36V531.6h2.74v12.32A1.37,1.37,0,0,1,555.24,545.28Zm13.58-1.19a.79.79,0,0,1-.7,1.19h-.65a.79.79,0,0,1-.7-.41l-7.42-13.35v-4.28Zm-12.21-23.44h-2.74v-8.21h2.74Zm2.74-10.95h-8.22V507h8.22Zm-5.48-5.47V496h2.74v8.22Zm4.11-11h-1.37v-21.9H558a1.37,1.37,0,0,1,1.37,1.37v19.16A1.38,1.38,0,0,1,558,493.28Zm5.47-4.11h-1.37V475.49h1.37a1.36,1.36,0,0,1,1.37,1.36V487.8A1.37,1.37,0,0,1,563.45,489.17Zm4.11-9.58h2.73v5.48h-2.73Zm8.21,6.84a1.37,1.37,0,0,1-2.74,0v-8.21a1.37,1.37,0,0,1,2.74,0Z" transform="translate(-504.6 -326.93)"/><rect class="cls-1" x="6.84" y="185.5" width="17.79" height="2.74"/><path class="cls-3" d="M836.91,487.55a10.42,10.42,0,0,0-10.75,0l-5,3a5.24,5.24,0,0,1-5.38,0l-5-3a10.42,10.42,0,0,0-10.75,0l-5,3a5.24,5.24,0,0,1-5.38,0L787,489l13.45-20.57a21.55,21.55,0,0,1,36.06,0l5.19,8.11,0-9.62-.86-1.35a26.76,26.76,0,0,0-44.8,0l-8.65,13.23L765.1,444.62a26.76,26.76,0,0,0-44.8,0l-66.92,102h6.47l49.74-76.05,1.61,1a10.42,10.42,0,0,0,10.75,0l5-3a5.2,5.2,0,0,1,5.38,0l5,3a10.44,10.44,0,0,0,10.75,0l5-3a5.2,5.2,0,0,1,5.38,0l5,3a10.45,10.45,0,0,0,10.75,0l1.61-1,8.49,13-23.56,36-7.89-12.16a26.72,26.72,0,0,0-22.46-12.19h-1.53a26.69,26.69,0,0,0-22.45,12.19l-25.13,39.22h5.93L696.05,533l2.08,1.25a10.44,10.44,0,0,0,10.76,0l5-3a5.18,5.18,0,0,1,5.37,0l5,3a10.44,10.44,0,0,0,10.76,0l5-3a5.18,5.18,0,0,1,5.37,0l5,3a10.4,10.4,0,0,0,10.76,0l2.08-1.25,9.1,13.67,6,0-14.43-22.26,20.28-31L787,495a10.44,10.44,0,0,0,10.76,0l5-3a5.23,5.23,0,0,1,5.37,0l5,3a10.44,10.44,0,0,0,10.75,0l5-3a5.24,5.24,0,0,1,5.38,0l5,3a19,19,0,0,0,2.5,1.32l1-5.45a4.33,4.33,0,0,1-.87-.36ZM771.52,467a5.2,5.2,0,0,1-5.38,0l-5-3a10.38,10.38,0,0,0-10.75,0l-5,3a5.2,5.2,0,0,1-5.38,0l-5-3a10.38,10.38,0,0,0-10.75,0l-5,3a5.2,5.2,0,0,1-5.38,0l-1.44-.86,12.23-18.69a21.55,21.55,0,0,1,36.06,0L773,466.17Zm-13.07,62.71a5.18,5.18,0,0,1-5.37,0l-5-3a10.44,10.44,0,0,0-10.76,0l-5,3a5.18,5.18,0,0,1-5.37,0l-5-3a10.44,10.44,0,0,0-10.76,0l-5,3a5.2,5.2,0,0,1-5.38,0l-1.92-1.16,11.91-18.34a21.47,21.47,0,0,1,18.07-9.81h1.53a21.47,21.47,0,0,1,18.07,9.81l11.91,18.34Z" transform="translate(-504.6 -326.93)"/><rect class="cls-3" x="332.16" y="113.41" width="5.23" height="10.45"/><rect class="cls-3" x="274.68" y="61.15" width="10.45" height="5.23"/><rect class="cls-3" x="786.64" y="415.52" width="10.45" height="5.23" transform="translate(-607.58 125.03) rotate(-30)"/><rect class="cls-3" x="806.71" y="435.6" width="10.45" height="5.23" transform="translate(-478.08 595.43) rotate(-60.01)"/><rect class="cls-3" x="331.92" width="5.23" height="10.45"/><rect class="cls-3" x="786.89" y="356.1" width="5.23" height="10.45" transform="translate(-422.77 537.45) rotate(-60)"/><rect class="cls-3" x="808.17" y="334.38" width="5.23" height="10.45" transform="translate(-565.79 123.85) rotate(-29.99)"/><path class="cls-1" d="M841.57,431.88a42.95,42.95,0,1,1,0-85.89Z" transform="translate(-504.6 -326.93)"/></svg>