<svg xmlns="http://www.w3.org/2000/svg" viewBox="0 0 366.22 234.13"><defs><style>.cls-1{fill:#fff;}.cls-2{fill:#648f6e;}.cls-3{fill:#091e22;}.cls-4{fill:#0a1e21;}.cls-5{fill:#010101;}</style></defs><title>video-section-art</title><g id="Layer_2" data-name="Layer 2"><g id="Layer_1-2" data-name="Layer 1"><ellipse class="cls-1" cx="303.98" cy="126.86" rx="30.47" ry="30.39"/><path class="cls-2" d="M312.06,121.4l-.56,5.38a1,1,0,0,1-1,.87h-3.29v14.27a1,1,0,0,1-1,1h-6.33a1,1,0,0,1-1-1V127.65h-2a1,1,0,0,1-1-1v-5.39a1,1,0,0,1,1-1h2v-2.5a8.07,8.07,0,0,1,1.44-4.72,6.94,6.94,0,0,1,5.94-2.67l4.69,0a1,1,0,0,1,1,1v5.22a1,1,0,0,1-1,1h-3.4c-.22,0-.36,0-.36.48v2.19h3.84a1,1,0,0,1,.74.32A1.13,1.13,0,0,1,312.06,121.4Z"/><path class="cls-3" d="M326.24,104.4a31.47,31.47,0,1,0,9.23,22.27A31.29,31.29,0,0,0,326.24,104.4Zm-1.39,43.14a29.5,29.5,0,1,1,8.65-20.87A29.32,29.32,0,0,1,324.85,147.54Z"/><path class="cls-3" d="M325.39,109.32a1,1,0,0,0-1.39-.14,1,1,0,0,0-.14,1.38,25.58,25.58,0,0,1-36.93,35.17,1,1,0,0,0-1.31,1.47,27.55,27.55,0,0,0,39.77-37.88Z"/><path class="cls-3" d="M278.4,126.67A25.59,25.59,0,0,1,321,107.6a1,1,0,0,0,1.38-.08,1,1,0,0,0-.07-1.39A27.55,27.55,0,0,0,282.58,144a1,1,0,0,0,1.53-1.24A25.61,25.61,0,0,1,278.4,126.67Z"/><polygon class="cls-1" points="152.39 233.06 219.7 129.32 224.84 125.41 234.52 121.29 244.81 121.91 257.78 131.38 268.07 150.11 279.18 163.28 282.89 167.81 292.15 156.49 301.62 145.17 317.68 142.49 329.61 147.64 337.23 158.55 337.44 232.86 152.39 233.06"/><path class="cls-2" d="M53.38,180.75H50.64V156.12h2.74a2.73,2.73,0,0,1,2.73,2.73V178A2.73,2.73,0,0,1,53.38,180.75Z"/><path class="cls-4" d="M69.8,160.22A4.11,4.11,0,0,0,65.94,163H63a4.12,4.12,0,0,0-4.11-4.11H57.48A4.1,4.1,0,0,0,54.74,155v-5.73H46.53V155a4.1,4.1,0,0,0-2.74,3.85v12.51A4.28,4.28,0,0,0,42,172.42l-9.87,9.87a4.14,4.14,0,0,1-2.9,1.2H26.3a11.53,11.53,0,0,0-5.08-5.44,15.06,15.06,0,1,0-11.55.32,11.63,11.63,0,0,0-5.56,9.91v18.47H5.47v27.38H30.11V218.6a15.17,15.17,0,0,0-2-7.47l-2.51-4.38h1.75V193.07h3.44a9.53,9.53,0,0,0,6.78-2.81l8.56-8.56a3,3,0,0,0,.38.15v8.48H43.79v8.21h2.74v9.22L34.67,228.85a3.54,3.54,0,0,0,3.08,5.28h.66a3.54,3.54,0,0,0,3.09-1.82l5-9.05V230a4.11,4.11,0,1,0,8.21,0v-6.76l5,9.05a3.54,3.54,0,0,0,3.09,1.82h.66a3.55,3.55,0,0,0,3.54-3.54,3.64,3.64,0,0,0-.45-1.74L54.74,207.76v-9.22h2.74v-8.21H54.74v-8.46A4.1,4.1,0,0,0,57.48,178h1.37a4.11,4.11,0,0,0,4.11-4.1h3a4.1,4.1,0,0,0,8-1.37v-8.21A4.11,4.11,0,0,0,69.8,160.22ZM49.27,152H52v2.74H49.27Zm-1.37,5.48h1.37v17.95a4.27,4.27,0,0,0-2.74-4V158.85A1.37,1.37,0,0,1,47.9,157.49Zm.49,21.89a4.23,4.23,0,0,0,.88-2.57v2.57Zm-34,11a2.05,2.05,0,1,1,0-4.1h6.16v4.1Zm-11.63-26a12.32,12.32,0,1,1,12.31,12.32A12.33,12.33,0,0,1,2.74,164.33Zm5.47,67.06V206.75h2l5.19,8.31a6.84,6.84,0,0,1,1,3.63v12.7Zm17.54-18.9a12.35,12.35,0,0,1,1.62,6.11v12.79H19.16v-12.7a9.53,9.53,0,0,0-1.46-5.08l-4.28-6.86h9ZM24.63,204H6.84V188.28a8.88,8.88,0,0,1,16.37-4.79H14.37a4.79,4.79,0,0,0,0,9.58H24.63Zm11-15.69a6.8,6.8,0,0,1-4.84,2H23.27v-4.1h5.94a6.81,6.81,0,0,0,4.84-2l9.86-9.86a1.53,1.53,0,0,1,2.62,1.08v1.37a1.54,1.54,0,0,1-.45,1.09ZM52,215H49.27v-5.48H52Zm-12.9,16a.81.81,0,0,1-.7.41h-.66a.8.8,0,0,1-.8-.8.87.87,0,0,1,.1-.39l9.48-16.85v4.27Zm11.53.41A1.37,1.37,0,0,1,49.27,230V217.7H52V230A1.38,1.38,0,0,1,50.64,231.39Zm13.58-1.19a.76.76,0,0,1,.1.39.8.8,0,0,1-.8.8h-.66a.82.82,0,0,1-.7-.41l-7.42-13.36v-4.27ZM52,206.75H49.27v-8.21H52Zm2.73-10.94H46.53v-2.74h8.21Zm-5.47-5.48v-8.21H52v8.21Zm4.11-11H52V157.49h1.37a1.36,1.36,0,0,1,1.36,1.36V178A1.36,1.36,0,0,1,53.38,179.38Zm5.47-4.1H57.48V161.59h1.37A1.38,1.38,0,0,1,60.22,163v10.95A1.38,1.38,0,0,1,58.85,175.28ZM63,165.7h2.73v5.47H63Zm8.21,6.84a1.37,1.37,0,0,1-2.74,0v-8.21a1.37,1.37,0,1,1,2.74,0Z"/><rect class="cls-2" x="6.84" y="198.54" width="17.79" height="2.74"/><path class="cls-3" d="M332.31,173.66a10.38,10.38,0,0,0-10.75,0l-5,3a5.2,5.2,0,0,1-5.38,0l-5-3a10.38,10.38,0,0,0-10.75,0l-5,3a5.2,5.2,0,0,1-5.38,0l-2.66-1.59,13.45-20.58a21.54,21.54,0,0,1,36.06,0l5.4,8.45.06-9.72-1.09-1.6a26.77,26.77,0,0,0-44.8,0l-8.65,13.24L260.5,130.72a26.77,26.77,0,0,0-44.8,0l-66.92,102h6.46L205,156.66l1.6,1a10.44,10.44,0,0,0,10.76,0l5-3a5.24,5.24,0,0,1,5.38,0l5,3a10.46,10.46,0,0,0,10.76,0l5-3a5.24,5.24,0,0,1,5.38,0l5,3a10.42,10.42,0,0,0,10.75,0l1.61-1,8.48,13-23.55,36-7.9-12.15a26.67,26.67,0,0,0-22.45-12.2h-1.53a26.67,26.67,0,0,0-22.45,12.19l-25.13,39.22h5.93l8.83-13.65,2.08,1.25a10.42,10.42,0,0,0,10.75,0l5-3a5.24,5.24,0,0,1,5.38,0l5,3a10.42,10.42,0,0,0,10.75,0l5-3a5.23,5.23,0,0,1,5.37,0l5,3a10.46,10.46,0,0,0,10.76,0l2.08-1.25,9.1,13.67,5.95,0-14.42-22.26,20.28-31,2.83,1.7a10.42,10.42,0,0,0,10.75,0l5-3a5.2,5.2,0,0,1,5.38,0l5,3a10.41,10.41,0,0,0,10.75,0l5-3a5.2,5.2,0,0,1,5.38,0l5,3a19.83,19.83,0,0,0,2.51,1.33l1.05-5.45a5.92,5.92,0,0,1-.87-.36Zm-65.39-20.52a5.24,5.24,0,0,1-5.38,0l-5-3a10.42,10.42,0,0,0-10.75,0l-5,3a5.23,5.23,0,0,1-5.37,0l-5-3a10.44,10.44,0,0,0-10.76,0l-5,3a5.23,5.23,0,0,1-5.37,0l-1.44-.86,12.22-18.7a21.55,21.55,0,0,1,36.06,0l12.23,18.7Zm-13.07,62.71a5.24,5.24,0,0,1-5.38,0l-5-3a10.44,10.44,0,0,0-10.76,0l-5,3a5.24,5.24,0,0,1-5.38,0l-5-3a10.42,10.42,0,0,0-10.75,0l-5,3a5.24,5.24,0,0,1-5.38,0l-1.92-1.16,11.91-18.34a21.45,21.45,0,0,1,18.07-9.81h1.53a21.46,21.46,0,0,1,18.07,9.81l11.9,18.34Z"/><circle class="cls-1" cx="244.91" cy="78.69" r="24.34"/><path class="cls-5" d="M262.81,60.76a25.67,25.67,0,0,0-36,0,25,25,0,0,0,0,35.69,25.67,25.67,0,0,0,36,0,25.07,25.07,0,0,0,0-35.69Zm-1.13,34.57a24.06,24.06,0,0,1-33.79,0,23.48,23.48,0,0,1,0-33.45,24.06,24.06,0,0,1,33.79,0,23.48,23.48,0,0,1,0,33.45Z"/><path class="cls-5" d="M262.11,64.7a.8.8,0,0,0-1.12-.11.79.79,0,0,0-.12,1.11,20.35,20.35,0,0,1-1.44,27.4,20.86,20.86,0,0,1-28.45.79.79.79,0,0,0-1.12.06.77.77,0,0,0,.06,1.11,22.47,22.47,0,0,0,30.63-.84,21.91,21.91,0,0,0,1.56-29.52Z"/><path class="cls-5" d="M224.08,78.6a20.75,20.75,0,0,1,34.51-15.28.79.79,0,0,0,1.12-.06.77.77,0,0,0-.06-1.11A22.47,22.47,0,0,0,229,63a21.94,21.94,0,0,0-1.56,29.52.81.81,0,0,0,.62.29.8.8,0,0,0,.62-1.29,20.41,20.41,0,0,1-4.62-12.91Z"/><path class="cls-2" d="M251.48,66H238.14A6.1,6.1,0,0,0,232,72v13.2a6.11,6.11,0,0,0,6.13,6.07h13.34a6.11,6.11,0,0,0,6.13-6.07V72A6.1,6.1,0,0,0,251.48,66Zm.48,6.57a1,1,0,0,1-1-1,1,1,0,0,1,2,0A1,1,0,0,1,252,72.53Zm-7.14-.12a6.22,6.22,0,1,1-6.28,6.22A6.25,6.25,0,0,1,244.82,72.41Z"/><path class="cls-1" d="M253.47,71.56A1.49,1.49,0,0,1,252,73.05a1.51,1.51,0,0,1-1.51-1.49,1.53,1.53,0,0,1,1.51-1.5A1.51,1.51,0,0,1,253.47,71.56Z"/><path class="cls-1" d="M244.82,72.41a6.22,6.22,0,1,0,6.26,6.22A6.25,6.25,0,0,0,244.82,72.41Zm0,10.83a4.61,4.61,0,1,1,4.65-4.61A4.64,4.64,0,0,1,244.82,83.24Z"/><circle class="cls-2" cx="244.81" cy="78.54" r="4.81"/><ellipse class="cls-1" cx="321.73" cy="43.81" rx="42.39" ry="42.78"/><path class="cls-5" d="M353.35,12.87A43.94,43.94,0,0,0,291.21,75a43.94,43.94,0,0,0,62.14-62.15Zm-1.94,60.2a41.2,41.2,0,0,1-58.26-58.26,41.2,41.2,0,1,1,58.26,58.26Z"/><path class="cls-5" d="M352.15,19.73a1.39,1.39,0,0,0-1.93-.2,1.37,1.37,0,0,0-.2,1.93,35.71,35.71,0,0,1-51.54,49.1,1.37,1.37,0,1,0-1.83,2,38.45,38.45,0,0,0,55.5-52.87Z"/><path class="cls-5" d="M286.58,43.94a35.7,35.7,0,0,1,59.5-26.61,1.37,1.37,0,0,0,1.83-2,38.45,38.45,0,0,0-55.5,52.87,1.36,1.36,0,0,0,1.93.2,1.37,1.37,0,0,0,.2-1.93A35.81,35.81,0,0,1,286.58,43.94Z"/><path class="cls-2" d="M346.4,42.18v3.66a78.43,78.43,0,0,1-.46,8v0c-.06.39-.55,3.8-2.15,5.53a7.36,7.36,0,0,1-5.11,2.45l-.26,0h-.07c-6.31.48-15.84.5-15.93.51-.5,0-11.88-.13-15.52-.49l-.13,0a2.72,2.72,0,0,0-.52-.08A7.92,7.92,0,0,1,301,59.36c-1.6-1.73-2.1-5.14-2.15-5.53v0a78.43,78.43,0,0,1-.46-8V42.18a78.12,78.12,0,0,1,.46-8v0c.05-.38.55-3.79,2.14-5.53a7.37,7.37,0,0,1,5.13-2.45l.26,0h.06c6.31-.5,15.82-.5,15.93-.5h0c.09,0,9.61,0,15.92.5h.06l.25,0a7.32,7.32,0,0,1,5.13,2.45c1.6,1.74,2.09,5.15,2.15,5.53v0A78.12,78.12,0,0,1,346.4,42.18Z"/><path class="cls-1" d="M332.27,44a1.36,1.36,0,0,1-.66,1.17l-14.13,8.49a1.41,1.41,0,0,1-.72.19,1.25,1.25,0,0,1-.67-.18,1.36,1.36,0,0,1-.69-1.19v-17a1.37,1.37,0,0,1,.69-1.2,1.38,1.38,0,0,1,1.39,0l14.13,8.48A1.37,1.37,0,0,1,332.27,44Z"/></g></g></svg>